<svg xmlns="http://www.w3.org/2000/svg" width="686.051" height="402.067" viewBox="0 0 686.051 402.067"><path d="M17.427,0h651.2A17.427,17.427,0,0,1,686.05,17.427V384.64a17.427,17.427,0,0,1-17.427,17.427H17.427A17.427,17.427,0,0,1,0,384.64V17.427A17.427,17.427,0,0,1,17.427,0Z" transform="translate(0)" fill="#bbc0d6" opacity="0.8"/><path d="M196.954,370.363l-.145-26.118c0-9.248,7.863-16.814,17.473-16.814h651.1c9.61,0,17.473,7.567,17.473,16.814l-.247,26.118Z" transform="translate(-196.809 -327.431)" fill="#56557e"/><circle cx="7.903" cy="7.903" r="7.903" transform="translate(21.905 13.563)" fill="#fa538d"/><circle cx="7.903" cy="7.903" r="7.903" transform="translate(52.991 13.563)" fill="#fab353"/><circle cx="7.903" cy="7.903" r="7.903" transform="translate(84.078 13.563)" fill="#9dc925"/><path d="M0,0H660.682V332.393H0Z" transform="translate(12.586 52.858)" fill="#8f97b9"/><g transform="translate(31.948 66.804)"><path d="M235.67,432.633l22.641-11.806v5.031a1.98,1.98,0,0,1-.286,1.043,2.31,2.31,0,0,1-.944.815L246.7,433.033a9.372,9.372,0,0,1-1.386.586q-.73.243-1.558.444.829.2,1.558.442a9.458,9.458,0,0,1,1.386.586l10.377,5.345a2.323,2.323,0,0,1,.944.815,1.982,1.982,0,0,1,.286,1.043v5.031L235.67,435.492Z" transform="translate(-235.67 -410.85)" fill="#f9b25f"/><path d="M277.292,451.255a4.2,4.2,0,0,1-.658,1.144,3.9,3.9,0,0,1-.915.814,4.3,4.3,0,0,1-1.086.5,3.874,3.874,0,0,1-1.115.171h-2.974l16.694-42.707a4.026,4.026,0,0,1,1.4-1.843,3.728,3.728,0,0,1,2.2-.644h3Z" transform="translate(-241.874 -408.691)" fill="#f9b25f"/><path d="M306.047,447.326v-5.031a1.974,1.974,0,0,1,.285-1.043,2.323,2.323,0,0,1,.944-.815l10.377-5.345a13.6,13.6,0,0,1,2.944-1.028q-.83-.2-1.559-.444a9.364,9.364,0,0,1-1.385-.586l-10.377-5.317a2.31,2.31,0,0,1-.944-.815,1.972,1.972,0,0,1-.285-1.043v-5.031l22.64,11.806v2.858Z" transform="translate(-248.19 -410.85)" fill="#f9b25f"/><path d="M4.488,0H142.759a4.488,4.488,0,1,1,0,8.976H4.488A4.488,4.488,0,0,1,4.488,0Z" transform="translate(79.071 57.536)" fill="#bbc0d6"/><path d="M4.218,0A4.218,4.218,0,0,1,8.435,4.218v.541A4.218,4.218,0,0,1,0,4.759V4.218A4.218,4.218,0,0,1,4.218,0Z" transform="translate(5.072 57.536)" fill="#e5e8f5"/><path d="M4.218,0A4.218,4.218,0,0,1,8.435,4.218v.541A4.218,4.218,0,0,1,0,4.759V4.218A4.218,4.218,0,0,1,4.218,0Z" transform="translate(5.072 69.823)" fill="#e5e8f5"/><path d="M4.218,0A4.218,4.218,0,0,1,8.435,4.218v.541A4.218,4.218,0,0,1,0,4.759V4.218A4.218,4.218,0,0,1,4.218,0Z" transform="translate(5.072 104.341)" fill="#e5e8f5"/><path d="M4.218,0A4.218,4.218,0,0,1,8.435,4.218v.541A4.218,4.218,0,0,1,0,4.759V4.218A4.218,4.218,0,0,1,4.218,0Z" transform="translate(5.072 122.757)" fill="#e5e8f5"/><path d="M4.218,0A4.218,4.218,0,0,1,8.435,4.218v.541A4.218,4.218,0,0,1,0,4.759V4.218A4.218,4.218,0,0,1,4.218,0Z" transform="translate(5.072 141.017)" fill="#e5e8f5"/><path d="M4.218,0A4.218,4.218,0,0,1,8.435,4.218v.541A4.218,4.218,0,0,1,0,4.759V4.218A4.218,4.218,0,0,1,4.218,0Z" transform="translate(5.072 155.062)" fill="#e5e8f5"/><path d="M4.218,0A4.218,4.218,0,0,1,8.435,4.218v.541A4.218,4.218,0,0,1,0,4.759V4.218A4.218,4.218,0,0,1,4.218,0Z" transform="translate(5.072 185.027)" fill="#e5e8f5"/><path d="M4.218,0A4.218,4.218,0,0,1,8.435,4.218v.541A4.218,4.218,0,0,1,0,4.759V4.218A4.218,4.218,0,0,1,4.218,0Z" transform="translate(5.072 203.13)" fill="#e5e8f5"/><path d="M4.218,0A4.218,4.218,0,0,1,8.435,4.218v.541A4.218,4.218,0,0,1,0,4.759V4.218A4.218,4.218,0,0,1,4.218,0Z" transform="translate(5.072 221.084)" fill="#e5e8f5"/><path d="M4.218,0A4.218,4.218,0,0,1,8.435,4.218v.541A4.218,4.218,0,0,1,0,4.759V4.218A4.218,4.218,0,0,1,4.218,0Z" transform="translate(5.072 235.001)" fill="#e5e8f5"/><path d="M4.218,0A4.218,4.218,0,0,1,8.435,4.218v.541A4.218,4.218,0,0,1,0,4.759V4.218A4.218,4.218,0,0,1,4.218,0Z" transform="translate(5.072 266.66)" fill="#e5e8f5"/><path d="M4.218,0A4.218,4.218,0,0,1,8.435,4.218v.541A4.218,4.218,0,0,1,0,4.759V4.218A4.218,4.218,0,0,1,4.218,0Z" transform="translate(5.072 281.002)" fill="#e5e8f5"/><path d="M4.488,0h118a4.488,4.488,0,0,1,0,8.976h-118A4.488,4.488,0,0,1,4.488,0Z" transform="translate(28.245 70.819)" fill="#bbc0d6"/><path d="M4.488,0H210a4.488,4.488,0,0,1,0,8.976H4.488A4.488,4.488,0,0,1,4.488,0Z" transform="translate(162.248 70.819)" fill="#bbc0d6"/><path d="M4.488,0H78.146a4.488,4.488,0,0,1,0,8.976H4.488A4.488,4.488,0,0,1,4.488,0Z" transform="translate(26.1 104.646)" fill="#f9b25f"/><path d="M4.488,0H130.882a4.488,4.488,0,0,1,0,8.976H4.488A4.488,4.488,0,0,1,4.488,0Z" transform="translate(41.733 123.222)" fill="#bbc0d6"/><path d="M4.488,0H215.113a4.488,4.488,0,0,1,0,8.976H4.488A4.488,4.488,0,0,1,4.488,0Z" transform="translate(68.26 141.075)" fill="#bbc0d6"/><path d="M4.488,0h124.48a4.488,4.488,0,0,1,0,8.976H4.488A4.488,4.488,0,0,1,4.488,0Z" transform="translate(313.02 141.075)" fill="#bbc0d6"/><path d="M4.488,0H263.166a4.488,4.488,0,1,1,0,8.976H4.488A4.488,4.488,0,0,1,4.488,0Z" transform="translate(49.937 156.41)" fill="#bbc0d6"/><path d="M4.488,0H45.753a4.488,4.488,0,0,1,0,8.976H4.488A4.488,4.488,0,0,1,4.488,0Z" transform="translate(334.352 156.41)" fill="#bbc0d6"/><path d="M4.488,0H142.759a4.488,4.488,0,1,1,0,8.976H4.488A4.488,4.488,0,0,1,4.488,0Z" transform="translate(256.92 57.536)" fill="#bbc0d6"/><path d="M4.488,0h118a4.488,4.488,0,0,1,0,8.976h-118A4.488,4.488,0,0,1,4.488,0Z" transform="translate(391.115 70.819)" fill="#bbc0d6"/><path d="M4.488,0H78.146a4.488,4.488,0,0,1,0,8.976H4.488A4.488,4.488,0,0,1,4.488,0Z" transform="translate(420.524 104.646)" fill="#bbc0d6"/><path d="M4.488,0H191.86a4.488,4.488,0,1,1,0,8.976H4.488A4.488,4.488,0,0,1,4.488,0Z" transform="translate(403.049 160.513)" fill="#bbc0d6"/><path d="M4.488,0H263.166a4.488,4.488,0,1,1,0,8.976H4.488A4.488,4.488,0,0,1,4.488,0Z" transform="translate(124.519 103.343)" fill="#bbc0d6"/><path d="M4.488,0H78.146a4.488,4.488,0,0,1,0,8.976H4.488A4.488,4.488,0,0,1,4.488,0Z" transform="translate(26.1 185.187)" fill="#f9b25f"/><path d="M4.488,0H130.882a4.488,4.488,0,0,1,0,8.976H4.488A4.488,4.488,0,0,1,4.488,0Z" transform="translate(41.733 203.763)" fill="#bbc0d6"/><path d="M4.488,0H215.113a4.488,4.488,0,0,1,0,8.976H4.488A4.488,4.488,0,0,1,4.488,0Z" transform="translate(68.26 221.616)" fill="#bbc0d6"/><path d="M4.488,0H263.166a4.488,4.488,0,1,1,0,8.976H4.488A4.488,4.488,0,0,1,4.488,0Z" transform="translate(49.937 236.952)" fill="#bbc0d6"/><path d="M4.488,0H142.759a4.488,4.488,0,1,1,0,8.976H4.488A4.488,4.488,0,0,1,4.488,0Z" transform="translate(79.071 267.1)" fill="#bbc0d6"/><path d="M4.488,0h118a4.488,4.488,0,0,1,0,8.976h-118A4.488,4.488,0,0,1,4.488,0Z" transform="translate(28.245 280.383)" fill="#bbc0d6"/></g></svg>