<svg xmlns="http://www.w3.org/2000/svg" xmlns:xlink="http://www.w3.org/1999/xlink" width="729.538" height="557.792" viewBox="0 0 729.538 557.792"><defs><linearGradient id="a" y1="0.5" x2="1" y2="0.5" gradientUnits="objectBoundingBox"><stop offset="0" stop-color="#f8bbd0"/><stop offset="0.102" stop-color="#f8b0c4"/><stop offset="0.286" stop-color="#f994a5"/><stop offset="0.529" stop-color="#fb6772"/><stop offset="0.82" stop-color="#fd292e"/><stop offset="1" stop-color="red"/></linearGradient><linearGradient id="b" y1="0.5" x2="1" y2="0.5" gradientUnits="objectBoundingBox"><stop offset="0" stop-color="#f8bbd0"/><stop offset="0.133" stop-color="#f8bac4"/><stop offset="0.372" stop-color="#f8b7a5"/><stop offset="0.686" stop-color="#f9b473"/><stop offset="1" stop-color="#fbb03b"/></linearGradient><linearGradient id="c" y1="0.5" x2="1" y2="0.5" gradientUnits="objectBoundingBox"><stop offset="0" stop-color="#cce0f4"/><stop offset="0.12" stop-color="#b7d9d4"/><stop offset="0.262" stop-color="#a3d2b7"/><stop offset="0.413" stop-color="#94cda0"/><stop offset="0.576" stop-color="#89c990"/><stop offset="0.758" stop-color="#83c787"/><stop offset="1" stop-color="#81c784"/></linearGradient></defs><circle cx="4.692" cy="4.692" r="4.692" transform="translate(209.349 56.442)" fill="url(#a)"/><circle cx="4.692" cy="4.692" r="4.692" transform="translate(227.802 56.442)" fill="url(#b)"/><circle cx="4.692" cy="4.692" r="4.692" transform="translate(246.255 56.442)" fill="url(#c)"/><path d="M0,0H109.607V117.79H0Z" transform="translate(309.965 440.002)" fill="#bfbfbf"/><path d="M730.093,921.994V909.218c0-9.692,12.8-17.621,28.444-17.621H929.305c15.644,0,28.444,7.929,28.444,17.621v12.777Z" transform="translate(-479.152 -364.202)" fill="#d8d6dd"/><path d="M12,0H717.538a12,12,0,0,1,12,12V451.56a12,12,0,0,1-12,12H12a12,12,0,0,1-12-12V12A12,12,0,0,1,12,0Z" transform="translate(0)" fill="#37474f"/><path d="M0,0H686.624V348.81H0Z" transform="translate(21.457 23.558)" fill="#fff"/><rect width="500.449" height="348.81" transform="translate(99.425 23.558)" fill="#fff" opacity="0.8"/><g transform="translate(21.45 23.515)"><path d="M449.614,322.255l-.043-46.589h686.854l0,46.589Z" transform="translate(-449.569 -275.666)" fill="#f2f5f8"/><path d="M508.372,323.82l-.028-25.014,12.09-.016c1.519-.011,5.423-14.706,8.776-14.706H590.9c3.339,0,7.281,14.81,8.8,14.806l8.852-.018-.015,24.947Z" transform="translate(-460.261 -277.198)" fill="#56557e" opacity="0.5"/><path d="M702,323.82l-.028-25.014,12.09-.016c1.519-.011,5.423-14.706,8.776-14.706h61.686c3.339,0,7.28,14.81,8.8,14.806l8.852-.018-.015,24.947Z" transform="translate(-495.486 -277.198)" fill="#56557e" opacity="0.5"/><path d="M799.206,323.82l-.027-25.014,12.09-.016c1.519-.011,5.423-14.706,8.776-14.706H881.73c3.339,0,7.28,14.81,8.8,14.806l8.852-.018-.015,24.947Z" transform="translate(-513.17 -277.198)" fill="#56557e" opacity="0.5"/><path d="M449.618,323.82l-.028-25.014,139.374-.016c1.519-.011,5.423-14.706,8.776-14.706h61.685c3.339,0,7.281,14.81,8.8,14.806l468.221-.018-.015,24.947Z" transform="translate(-449.573 -277.198)" fill="#56557e"/><g transform="translate(131.226 159.809)"><path d="M0,0H184.054V94.651H0Z" transform="translate(0.409 0.409)" fill="#e5e8f5"/></g><path d="M5.286,0H335.179a5.286,5.286,0,0,1,0,10.573H5.286A5.286,5.286,0,0,1,0,5.286H0A5.286,5.286,0,0,1,5.286,0Z" transform="translate(194.016 116.614)" fill="#e5e8f5"/><path d="M6.394,0H234.44a6.394,6.394,0,0,1,0,12.788H6.394A6.394,6.394,0,0,1,6.394,0Z" transform="translate(240.994 88.868)" fill="#e5e8f5"/><path d="M5.286,0H401.223a5.286,5.286,0,0,1,0,10.573H5.286A5.286,5.286,0,0,1,5.286,0Z" transform="translate(127.972 137.642)" fill="#e5e8f5"/><path d="M0,0H686.888V29.254H0Z" transform="translate(0 46.663)" fill="#e5e8f5"/><path d="M5.286,0H144.522a5.286,5.286,0,0,1,0,10.573H5.286A5.286,5.286,0,0,1,5.286,0Z" transform="translate(388.972 160.452)" fill="#e5e8f5"/><path d="M5.286,0H197.793a5.286,5.286,0,0,1,0,10.573H5.286A5.286,5.286,0,0,1,5.286,0Z" transform="translate(337.036 185.095)" fill="#e5e8f5"/><path d="M5.286,0H197.733a5.286,5.286,0,0,1,5.286,5.286h0a5.286,5.286,0,0,1-5.286,5.286H5.286A5.286,5.286,0,0,1,5.286,0Z" transform="translate(337.036 206.123)" fill="#e5e8f5"/><path d="M5.286,0H197.733a5.286,5.286,0,0,1,5.286,5.286h0a5.286,5.286,0,0,1-5.286,5.286H5.286A5.286,5.286,0,0,1,5.286,0Z" transform="translate(337.036 224.444)" fill="#e5e8f5"/><path d="M5.286,0h153.4a5.286,5.286,0,0,1,0,10.573H5.286A5.286,5.286,0,0,1,0,5.286H0A5.286,5.286,0,0,1,5.286,0Z" transform="translate(337.036 242.508)" fill="#e5e8f5"/><g transform="translate(5.663 28.063)"><path d="M474.5,318.774H462.8v3.81l-6.307-6.307,6.307-6.308v3.81h11.7Z" transform="translate(-456.491 -309.97)" fill="#fff"/></g><g transform="translate(31.85 28.063)"><path d="M488.5,318.774h11.7v3.81l6.307-6.307L500.2,309.97v3.81H488.5Z" transform="translate(-488.502 -309.97)" fill="#fff"/></g><g transform="translate(60.109 27.983)"><rect width="536.566" height="10.72" rx="5.36" transform="translate(0.409 2.409)" fill="#e5e8f5"/></g><g transform="translate(608.919 27.876)"><circle cx="7.059" cy="7.059" r="7.059" transform="translate(0.41 0.409)" fill="#e5e8f5"/></g><g transform="translate(631.62 27.876)"><circle cx="7.059" cy="7.059" r="7.059" transform="translate(0.408 0.409)" fill="#e5e8f5"/></g><g transform="translate(653.879 27.876)"><circle cx="7.059" cy="7.059" r="7.059" transform="translate(0.41 0.409)" fill="#e5e8f5"/></g><circle cx="4.064" cy="4.064" r="4.064" transform="translate(7.918 6.235)" fill="#fa538d"/><circle cx="4.064" cy="4.064" r="4.064" transform="translate(23.904 6.235)" fill="#fab353"/><circle cx="4.064" cy="4.064" r="4.064" transform="translate(39.889 6.235)" fill="#9dc926"/><g transform="translate(380.096 9.614)"><rect width="8.13" height="2.454" transform="translate(0 2.837)" fill="#e0f5ff"/><rect width="2.454" height="8.129" transform="translate(2.838)" fill="#e0f5ff"/></g><path d="M0,0H1.636V204.912H0Z" transform="translate(131.599 160.827) rotate(-62.749)" fill="#fff"/><path d="M0,0H204.912V1.636H0Z" transform="matrix(0.889, -0.458, 0.458, 0.889, 131.6, 254.026)" fill="#fff"/><g transform="translate(17.169 58.553)"><path d="M471.846,353.2h2.776v1.064h-4.066v-6.933h1.29Z" transform="translate(-470.556 -347.257)" fill="#56557e"/><path d="M482.715,350.784a3.848,3.848,0,0,1-.254,1.412,3.338,3.338,0,0,1-.715,1.124,3.236,3.236,0,0,1-1.107.741,4.007,4.007,0,0,1-2.871,0,3.248,3.248,0,0,1-1.112-.741,3.319,3.319,0,0,1-.717-1.124,4.048,4.048,0,0,1,0-2.825,3.311,3.311,0,0,1,.717-1.124,3.248,3.248,0,0,1,1.112-.741,3.756,3.756,0,0,1,1.437-.266,3.708,3.708,0,0,1,1.434.268,3.244,3.244,0,0,1,1.822,1.863A3.849,3.849,0,0,1,482.715,350.784Zm-1.324,0a3.233,3.233,0,0,0-.151-1.024,2.174,2.174,0,0,0-.434-.77,1.874,1.874,0,0,0-.688-.484,2.58,2.58,0,0,0-1.83,0,1.892,1.892,0,0,0-.693.484,2.182,2.182,0,0,0-.438.77,3.484,3.484,0,0,0,0,2.048,2.157,2.157,0,0,0,.438.767,1.9,1.9,0,0,0,.693.482,2.58,2.58,0,0,0,1.83,0,1.886,1.886,0,0,0,.688-.482,2.148,2.148,0,0,0,.434-.767A3.228,3.228,0,0,0,481.391,350.784Z" transform="translate(-471.489 -347.24)" fill="#56557e"/><path d="M488.614,353.3a3.245,3.245,0,0,0,.76-.079,3.127,3.127,0,0,0,.616-.218v-1.261h-.868a.274.274,0,0,1-.2-.07.227.227,0,0,1-.072-.17v-.729h2.306v2.805a3.741,3.741,0,0,1-.549.333,3.555,3.555,0,0,1-.609.233,4.79,4.79,0,0,1-.693.137,6.548,6.548,0,0,1-.8.045,3.616,3.616,0,0,1-1.4-.263,3.275,3.275,0,0,1-1.829-1.856,3.789,3.789,0,0,1-.261-1.423,3.918,3.918,0,0,1,.254-1.434,3.155,3.155,0,0,1,1.856-1.851,4.1,4.1,0,0,1,1.5-.259,3.888,3.888,0,0,1,1.47.252,3.4,3.4,0,0,1,1.053.654l-.375.586a.332.332,0,0,1-.292.177.43.43,0,0,1-.235-.077c-.1-.061-.208-.122-.314-.182a2.174,2.174,0,0,0-.355-.158,2.835,2.835,0,0,0-.437-.11,3.214,3.214,0,0,0-.558-.043,2.392,2.392,0,0,0-.929.173,1.961,1.961,0,0,0-.707.494,2.232,2.232,0,0,0-.451.771,3.029,3.029,0,0,0-.159,1.008,3.142,3.142,0,0,0,.169,1.067,2.23,2.23,0,0,0,.47.789,2.024,2.024,0,0,0,.719.492A2.385,2.385,0,0,0,488.614,353.3Z" transform="translate(-473.189 -347.24)" fill="#56557e"/><path d="M500.563,350.784a3.847,3.847,0,0,1-.254,1.412,3.348,3.348,0,0,1-.714,1.124,3.239,3.239,0,0,1-1.108.741,4.007,4.007,0,0,1-2.871,0,3.256,3.256,0,0,1-1.112-.741,3.329,3.329,0,0,1-.717-1.124,4.048,4.048,0,0,1,0-2.825,3.321,3.321,0,0,1,.717-1.124,3.256,3.256,0,0,1,1.112-.741,3.756,3.756,0,0,1,1.437-.266,3.708,3.708,0,0,1,1.434.268,3.286,3.286,0,0,1,1.108.741,3.322,3.322,0,0,1,.714,1.122A3.848,3.848,0,0,1,500.563,350.784Zm-1.324,0a3.21,3.21,0,0,0-.151-1.024,2.173,2.173,0,0,0-.434-.77,1.874,1.874,0,0,0-.688-.484,2.578,2.578,0,0,0-1.829,0,1.879,1.879,0,0,0-.693.484,2.171,2.171,0,0,0-.439.77,3.5,3.5,0,0,0,0,2.048,2.145,2.145,0,0,0,.439.767,1.891,1.891,0,0,0,.693.482,2.578,2.578,0,0,0,1.829,0,1.886,1.886,0,0,0,.688-.482,2.148,2.148,0,0,0,.434-.767A3.2,3.2,0,0,0,499.239,350.784Z" transform="translate(-474.736 -347.24)" fill="#56557e"/></g><g transform="translate(461.743 58.692)"><path d="M1020.584,354.281h-.935v-3.126h-3.7v3.126h-.935V347.41h.935v3.064h3.7V347.41h.935Z" transform="translate(-1014.178 -347.41)" fill="#56557e"/><path d="M1025.6,349.778a2.492,2.492,0,0,1,.962.178,2.031,2.031,0,0,1,.729.5,2.219,2.219,0,0,1,.46.789,3.4,3.4,0,0,1,0,2.07,2.223,2.223,0,0,1-.46.786,2.008,2.008,0,0,1-.729.5,2.74,2.74,0,0,1-1.923,0,2.031,2.031,0,0,1-.731-.5,2.246,2.246,0,0,1-.465-.786,3.37,3.37,0,0,1,0-2.07,2.243,2.243,0,0,1,.465-.789,2.055,2.055,0,0,1,.731-.5A2.49,2.49,0,0,1,1025.6,349.778Zm0,4.335a1.25,1.25,0,0,0,1.075-.482,2.746,2.746,0,0,0,0-2.7,1.247,1.247,0,0,0-1.075-.483,1.5,1.5,0,0,0-.632.124,1.186,1.186,0,0,0-.448.359,1.6,1.6,0,0,0-.269.578,3.421,3.421,0,0,0,0,1.546,1.585,1.585,0,0,0,.269.573,1.2,1.2,0,0,0,.448.358A1.5,1.5,0,0,0,1025.6,354.113Z" transform="translate(-1015.681 -347.841)" fill="#56557e"/><path d="M1030.229,354.712v-4.857h.508a.217.217,0,0,1,.23.177l.062.5a2.514,2.514,0,0,1,.6-.542,1.417,1.417,0,0,1,.775-.211,1.151,1.151,0,0,1,.8.273,1.539,1.539,0,0,1,.439.738,1.513,1.513,0,0,1,.266-.455,1.557,1.557,0,0,1,.371-.317,1.573,1.573,0,0,1,.439-.182,1.951,1.951,0,0,1,.472-.057,1.8,1.8,0,0,1,.683.122,1.358,1.358,0,0,1,.509.358,1.6,1.6,0,0,1,.319.578,2.587,2.587,0,0,1,.11.785v3.092h-.853v-3.092a1.31,1.31,0,0,0-.25-.866.893.893,0,0,0-.724-.3,1.076,1.076,0,0,0-.4.074.946.946,0,0,0-.333.218,1.006,1.006,0,0,0-.228.362,1.412,1.412,0,0,0-.084.506v3.092h-.853v-3.092a1.363,1.363,0,0,0-.235-.873.834.834,0,0,0-.686-.288,1.086,1.086,0,0,0-.587.17,1.922,1.922,0,0,0-.5.463v3.62Z" transform="translate(-1016.946 -347.841)" fill="#56557e"/><path d="M1041.7,349.778a2.192,2.192,0,0,1,.806.146,1.813,1.813,0,0,1,.637.423,1.917,1.917,0,0,1,.42.681,2.632,2.632,0,0,1,.151.923.557.557,0,0,1-.043.268.179.179,0,0,1-.164.067h-3.232a2.7,2.7,0,0,0,.125.8,1.633,1.633,0,0,0,.317.569,1.26,1.26,0,0,0,.479.34,1.646,1.646,0,0,0,.623.113,1.839,1.839,0,0,0,.554-.074,2.688,2.688,0,0,0,.4-.16,3.056,3.056,0,0,0,.281-.161.373.373,0,0,1,.194-.074.188.188,0,0,1,.163.082l.24.312a1.617,1.617,0,0,1-.379.333,2.324,2.324,0,0,1-.472.233,3,3,0,0,1-.52.137,3.193,3.193,0,0,1-.532.045,2.466,2.466,0,0,1-.928-.17,2.021,2.021,0,0,1-.733-.5,2.281,2.281,0,0,1-.483-.813,3.311,3.311,0,0,1-.173-1.113,2.83,2.83,0,0,1,.156-.949,2.23,2.23,0,0,1,.448-.765,2.049,2.049,0,0,1,.714-.508A2.34,2.34,0,0,1,1041.7,349.778Zm.019.628a1.311,1.311,0,0,0-.974.358,1.677,1.677,0,0,0-.441.99h2.642a1.713,1.713,0,0,0-.082-.544,1.2,1.2,0,0,0-.24-.427,1.067,1.067,0,0,0-.386-.278A1.3,1.3,0,0,0,1041.718,350.406Z" transform="translate(-1018.62 -347.841)" fill="#56557e"/><path d="M1013.992,359.784v-.575h25.482v.575Z" transform="translate(-1013.992 -349.556)" fill="#56557e"/></g><g transform="translate(507.008 58.5)"><path d="M1071.385,351.711v2.57h-.925V347.41h2.029a3.814,3.814,0,0,1,1.134.15,2.179,2.179,0,0,1,.8.43,1.742,1.742,0,0,1,.472.671,2.369,2.369,0,0,1,.155.878,2.235,2.235,0,0,1-.168.878,1.886,1.886,0,0,1-.491.686,2.268,2.268,0,0,1-.8.448,3.452,3.452,0,0,1-1.1.161Zm0-.739h1.1a2.139,2.139,0,0,0,.7-.106,1.445,1.445,0,0,0,.511-.3,1.208,1.208,0,0,0,.311-.452,1.553,1.553,0,0,0,.106-.581,1.319,1.319,0,0,0-.406-1.026,1.767,1.767,0,0,0-1.225-.37h-1.1Z" transform="translate(-1069.53 -347.218)" fill="#56557e"/><path d="M1077.342,354.71v-4.857h.488a.27.27,0,0,1,.192.052.325.325,0,0,1,.072.182l.057.758a2.225,2.225,0,0,1,.617-.794,1.448,1.448,0,0,1,1.225-.24,1.272,1.272,0,0,1,.3.127l-.11.638a.144.144,0,0,1-.149.119.738.738,0,0,1-.206-.045,1.282,1.282,0,0,0-.389-.046,1.106,1.106,0,0,0-.746.259,1.943,1.943,0,0,0-.5.753v3.092Z" transform="translate(-1070.782 -347.646)" fill="#56557e"/><path d="M1083.953,349.778a2.485,2.485,0,0,1,.961.178,2.025,2.025,0,0,1,.729.5,2.225,2.225,0,0,1,.461.789,3.421,3.421,0,0,1,0,2.07,2.228,2.228,0,0,1-.461.786,2,2,0,0,1-.729.5,2.739,2.739,0,0,1-1.923,0,2.025,2.025,0,0,1-.731-.5,2.235,2.235,0,0,1-.465-.786,3.353,3.353,0,0,1,0-2.07,2.231,2.231,0,0,1,.465-.789,2.049,2.049,0,0,1,.731-.5A2.485,2.485,0,0,1,1083.953,349.778Zm0,4.335a1.248,1.248,0,0,0,1.074-.482,2.741,2.741,0,0,0,0-2.7,1.245,1.245,0,0,0-1.074-.483,1.5,1.5,0,0,0-.633.124,1.192,1.192,0,0,0-.448.359,1.617,1.617,0,0,0-.268.578,3.43,3.43,0,0,0,0,1.546,1.6,1.6,0,0,0,.268.573,1.2,1.2,0,0,0,.448.358A1.5,1.5,0,0,0,1083.953,354.113Z" transform="translate(-1071.562 -347.648)" fill="#56557e"/><path d="M1091.924,354.238a.217.217,0,0,1-.23-.178l-.077-.589a2.563,2.563,0,0,1-.713.606,1.819,1.819,0,0,1-.918.227,1.751,1.751,0,0,1-.758-.16,1.564,1.564,0,0,1-.58-.472,2.237,2.237,0,0,1-.369-.777,3.985,3.985,0,0,1-.13-1.069,3.359,3.359,0,0,1,.144-1,2.436,2.436,0,0,1,.415-.8,1.906,1.906,0,0,1,1.541-.729,1.764,1.764,0,0,1,.763.151,1.83,1.83,0,0,1,.565.425v-2.7h.853v7.063Zm-1.654-.623a1.378,1.378,0,0,0,.731-.192,2.118,2.118,0,0,0,.578-.542v-2.349a1.359,1.359,0,0,0-.515-.443,1.5,1.5,0,0,0-.621-.127,1.229,1.229,0,0,0-1.046.484,2.262,2.262,0,0,0-.364,1.381,3.535,3.535,0,0,0,.081.813,1.567,1.567,0,0,0,.24.555.949.949,0,0,0,.389.32A1.307,1.307,0,0,0,1090.27,353.616Z" transform="translate(-1072.748 -347.175)" fill="#56557e"/><path d="M1095.849,349.872v3.1a1.293,1.293,0,0,0,.255.854.947.947,0,0,0,.767.3,1.477,1.477,0,0,0,.705-.178,2.212,2.212,0,0,0,.609-.494v-3.582h.854v4.857h-.509a.217.217,0,0,1-.23-.177l-.067-.522a2.671,2.671,0,0,1-.71.563,1.856,1.856,0,0,1-.9.214,1.759,1.759,0,0,1-.7-.132,1.4,1.4,0,0,1-.511-.371,1.6,1.6,0,0,1-.309-.58,2.6,2.6,0,0,1-.1-.753v-3.1Z" transform="translate(-1073.993 -347.666)" fill="#56557e"/><path d="M1104.891,350.718a.352.352,0,0,1-.077.081.177.177,0,0,1-.11.029.276.276,0,0,1-.156-.061,2.408,2.408,0,0,0-.214-.132,1.777,1.777,0,0,0-.314-.132,1.669,1.669,0,0,0-1.081.067,1.211,1.211,0,0,0-.458.367,1.65,1.65,0,0,0-.278.581,2.879,2.879,0,0,0-.094.762,2.76,2.76,0,0,0,.1.784,1.717,1.717,0,0,0,.282.576,1.218,1.218,0,0,0,.444.354,1.362,1.362,0,0,0,.587.122,1.517,1.517,0,0,0,.513-.074,1.584,1.584,0,0,0,.335-.165,2.555,2.555,0,0,0,.221-.166.266.266,0,0,1,.172-.074.181.181,0,0,1,.163.082l.24.312a1.847,1.847,0,0,1-.791.569,2.815,2.815,0,0,1-1,.179,2.123,2.123,0,0,1-.847-.168,1.928,1.928,0,0,1-.678-.487,2.308,2.308,0,0,1-.453-.784,3.147,3.147,0,0,1-.165-1.059,3.2,3.2,0,0,1,.151-1,2.261,2.261,0,0,1,.442-.794,1.993,1.993,0,0,1,.717-.52,2.411,2.411,0,0,1,.978-.187,2.306,2.306,0,0,1,.9.165,2.173,2.173,0,0,1,.7.468Z" transform="translate(-1075.128 -347.648)" fill="#56557e"/><path d="M1108.493,354.455a1.172,1.172,0,0,1-.885-.322,1.283,1.283,0,0,1-.308-.925v-2.973h-.585a.193.193,0,0,1-.13-.046.176.176,0,0,1-.052-.142v-.34l.8-.1.2-1.5a.182.182,0,0,1,.062-.117.2.2,0,0,1,.134-.046h.432v1.674h1.391v.618h-1.391v2.916a.618.618,0,0,0,.149.456.519.519,0,0,0,.383.149.664.664,0,0,0,.233-.037,1,1,0,0,0,.17-.079c.047-.029.088-.056.123-.079a.154.154,0,0,1,.088-.036.147.147,0,0,1,.12.082l.25.407a1.6,1.6,0,0,1-.533.324A1.818,1.818,0,0,1,1108.493,354.455Z" transform="translate(-1076.092 -347.315)" fill="#56557e"/><path d="M1069.323,359.784v-.575h33.806v.575Z" transform="translate(-1069.323 -349.364)" fill="#56557e"/></g><g transform="translate(561.521 58.5)"><path d="M1142.457,354.281h-.72a.31.31,0,0,1-.2-.062.4.4,0,0,1-.115-.158l-.642-1.659h-3.083l-.642,1.659a.379.379,0,0,1-.115.153.3.3,0,0,1-.2.067h-.719l2.747-6.871h.945Zm-4.5-2.551h2.565l-1.079-2.8a5.2,5.2,0,0,1-.206-.648c-.035.132-.069.252-.1.362s-.066.207-.1.29Z" transform="translate(-1135.969 -347.218)" fill="#56557e"/><path d="M1144.821,354.238v-7.063h.857v2.906a2.509,2.509,0,0,1,.694-.564,1.84,1.84,0,0,1,.894-.213,1.79,1.79,0,0,1,.762.158,1.541,1.541,0,0,1,.58.473,2.275,2.275,0,0,1,.369.776,3.952,3.952,0,0,1,.13,1.067,3.352,3.352,0,0,1-.144,1,2.409,2.409,0,0,1-.415.8,1.918,1.918,0,0,1-1.542.726,1.63,1.63,0,0,1-.8-.182,1.829,1.829,0,0,1-.573-.508l-.043.441a.2.2,0,0,1-.22.182Zm2.167-4.253a1.377,1.377,0,0,0-.731.192,2.118,2.118,0,0,0-.578.542v2.35a1.345,1.345,0,0,0,.511.447,1.482,1.482,0,0,0,.626.128,1.226,1.226,0,0,0,1.045-.484,2.255,2.255,0,0,0,.365-1.381,3.415,3.415,0,0,0-.084-.815,1.607,1.607,0,0,0-.241-.559.943.943,0,0,0-.389-.318A1.282,1.282,0,0,0,1146.988,349.985Z" transform="translate(-1137.57 -347.175)" fill="#56557e"/><path d="M1153.226,349.778a2.49,2.49,0,0,1,.961.178,2.025,2.025,0,0,1,.729.5,2.223,2.223,0,0,1,.46.789,3.4,3.4,0,0,1,0,2.07,2.227,2.227,0,0,1-.46.786,2,2,0,0,1-.729.5,2.74,2.74,0,0,1-1.923,0,2.038,2.038,0,0,1-.731-.5,2.246,2.246,0,0,1-.465-.786,3.37,3.37,0,0,1,0-2.07,2.242,2.242,0,0,1,.465-.789,2.062,2.062,0,0,1,.731-.5A2.492,2.492,0,0,1,1153.226,349.778Zm0,4.335a1.249,1.249,0,0,0,1.074-.482,2.746,2.746,0,0,0,0-2.7,1.246,1.246,0,0,0-1.074-.483,1.5,1.5,0,0,0-.633.124,1.186,1.186,0,0,0-.448.359,1.586,1.586,0,0,0-.268.578,3.393,3.393,0,0,0,0,1.546,1.569,1.569,0,0,0,.268.573,1.2,1.2,0,0,0,.448.358A1.5,1.5,0,0,0,1153.226,354.113Z" transform="translate(-1138.677 -347.648)" fill="#56557e"/><path d="M1158.569,349.872v3.1a1.288,1.288,0,0,0,.254.854.946.946,0,0,0,.767.3,1.474,1.474,0,0,0,.7-.178,2.2,2.2,0,0,0,.609-.494v-3.582h.853v4.857h-.509a.217.217,0,0,1-.23-.177l-.067-.522a2.684,2.684,0,0,1-.709.563,1.861,1.861,0,0,1-.9.214,1.76,1.76,0,0,1-.7-.132,1.4,1.4,0,0,1-.51-.371,1.572,1.572,0,0,1-.309-.58,2.6,2.6,0,0,1-.1-.753v-3.1Z" transform="translate(-1139.916 -347.666)" fill="#56557e"/><path d="M1165.738,354.455a1.169,1.169,0,0,1-.884-.322,1.279,1.279,0,0,1-.309-.925v-2.973h-.585a.193.193,0,0,1-.13-.046.176.176,0,0,1-.052-.142v-.34l.8-.1.2-1.5a.182.182,0,0,1,.062-.117.2.2,0,0,1,.134-.046h.432v1.674h1.391v.618H1165.4v2.916a.62.62,0,0,0,.149.456.519.519,0,0,0,.384.149.663.663,0,0,0,.232-.037,1,1,0,0,0,.17-.079c.048-.029.089-.056.123-.079a.154.154,0,0,1,.088-.036.147.147,0,0,1,.12.082l.25.407a1.6,1.6,0,0,1-.532.324A1.826,1.826,0,0,1,1165.738,354.455Z" transform="translate(-1141.019 -347.315)" fill="#56557e"/><path d="M1135.958,359.784v-.575h26.124v.575Z" transform="translate(-1135.958 -349.364)" fill="#56557e"/></g><g transform="translate(606.786 58.615)"><path d="M1197.063,352.845a.2.2,0,0,1,.139.062l.364.4a2.926,2.926,0,0,1-1.024.762,3.485,3.485,0,0,1-1.45.273,3.4,3.4,0,0,1-1.347-.257,2.936,2.936,0,0,1-1.031-.719,3.231,3.231,0,0,1-.662-1.11,4.148,4.148,0,0,1-.235-1.423,3.9,3.9,0,0,1,.251-1.424,3.254,3.254,0,0,1,.708-1.113,3.158,3.158,0,0,1,1.091-.721,3.714,3.714,0,0,1,1.4-.257,3.128,3.128,0,0,1,2.282.873l-.3.427a.334.334,0,0,1-.077.079.208.208,0,0,1-.125.031.244.244,0,0,1-.132-.045c-.047-.03-.1-.068-.165-.113s-.139-.093-.225-.144a1.97,1.97,0,0,0-.307-.144,2.577,2.577,0,0,0-.412-.112,2.817,2.817,0,0,0-.542-.046,2.626,2.626,0,0,0-1.01.189,2.268,2.268,0,0,0-.789.54,2.442,2.442,0,0,0-.515.853,3.266,3.266,0,0,0-.185,1.127,3.329,3.329,0,0,0,.185,1.146,2.52,2.52,0,0,0,.5.851,2.133,2.133,0,0,0,.756.53,2.418,2.418,0,0,0,.939.182,3.727,3.727,0,0,0,.551-.037,2.267,2.267,0,0,0,.453-.112,1.92,1.92,0,0,0,.389-.195,2.978,2.978,0,0,0,.362-.281A.249.249,0,0,1,1197.063,352.845Z" transform="translate(-1191.385 -347.316)" fill="#56557e"/><path d="M1202.062,349.778a2.492,2.492,0,0,1,.962.178,2.032,2.032,0,0,1,.729.5,2.222,2.222,0,0,1,.46.789,3.4,3.4,0,0,1,0,2.07,2.225,2.225,0,0,1-.46.786,2.008,2.008,0,0,1-.729.5,2.741,2.741,0,0,1-1.923,0,2.03,2.03,0,0,1-.731-.5,2.246,2.246,0,0,1-.465-.786,3.37,3.37,0,0,1,0-2.07,2.242,2.242,0,0,1,.465-.789,2.054,2.054,0,0,1,.731-.5A2.491,2.491,0,0,1,1202.062,349.778Zm0,4.335a1.25,1.25,0,0,0,1.075-.482,2.746,2.746,0,0,0,0-2.7,1.247,1.247,0,0,0-1.075-.483,1.5,1.5,0,0,0-.632.124,1.185,1.185,0,0,0-.448.359,1.586,1.586,0,0,0-.268.578,3.389,3.389,0,0,0,0,1.546,1.569,1.569,0,0,0,.268.573,1.2,1.2,0,0,0,.448.358A1.5,1.5,0,0,0,1202.062,354.113Z" transform="translate(-1192.827 -347.764)" fill="#56557e"/><path d="M1206.693,354.712v-4.857h.509a.217.217,0,0,1,.23.177l.067.528a2.7,2.7,0,0,1,.708-.566,1.838,1.838,0,0,1,.9-.216,1.744,1.744,0,0,1,.7.132,1.364,1.364,0,0,1,.508.374,1.661,1.661,0,0,1,.309.582,2.514,2.514,0,0,1,.106.753v3.092h-.854v-3.092a1.3,1.3,0,0,0-.252-.856.938.938,0,0,0-.769-.305,1.431,1.431,0,0,0-.708.182,2.337,2.337,0,0,0-.606.494v3.577Z" transform="translate(-1194.091 -347.764)" fill="#56557e"/><path d="M1214.574,354.455a1.171,1.171,0,0,1-.885-.322,1.283,1.283,0,0,1-.308-.925v-2.973h-.586a.191.191,0,0,1-.129-.046.176.176,0,0,1-.052-.142v-.34l.8-.1.2-1.5a.187.187,0,0,1,.063-.117.2.2,0,0,1,.134-.046h.431v1.674h1.391v.618h-1.391v2.916a.618.618,0,0,0,.15.456.518.518,0,0,0,.383.149.659.659,0,0,0,.232-.037.982.982,0,0,0,.17-.079c.048-.029.089-.056.123-.079a.155.155,0,0,1,.089-.036.147.147,0,0,1,.12.082l.25.407a1.6,1.6,0,0,1-.533.324A1.822,1.822,0,0,1,1214.574,354.455Z" transform="translate(-1195.168 -347.43)" fill="#56557e"/><path d="M1221.093,354.71h-.379a.453.453,0,0,1-.2-.038.211.211,0,0,1-.1-.164l-.1-.451c-.129.115-.253.218-.374.309a2.168,2.168,0,0,1-.384.231,2,2,0,0,1-.43.142,2.458,2.458,0,0,1-.505.047,1.717,1.717,0,0,1-.53-.079,1.21,1.21,0,0,1-.429-.238,1.134,1.134,0,0,1-.29-.4,1.4,1.4,0,0,1-.108-.575,1.074,1.074,0,0,1,.158-.555,1.4,1.4,0,0,1,.511-.474,3.34,3.34,0,0,1,.923-.339,6.274,6.274,0,0,1,1.4-.133v-.381a1.325,1.325,0,0,0-.242-.861.88.88,0,0,0-.718-.292,1.506,1.506,0,0,0-.524.079,1.939,1.939,0,0,0-.369.178c-.1.065-.194.124-.269.178a.39.39,0,0,1-.223.079.256.256,0,0,1-.151-.045.339.339,0,0,1-.1-.113l-.153-.273a2.751,2.751,0,0,1,.868-.58,2.663,2.663,0,0,1,1.031-.192,1.838,1.838,0,0,1,.723.134,1.481,1.481,0,0,1,.533.375,1.578,1.578,0,0,1,.327.58,2.437,2.437,0,0,1,.109.748Zm-2.214-.522a1.735,1.735,0,0,0,.411-.046,1.6,1.6,0,0,0,.353-.13,1.84,1.84,0,0,0,.316-.2,2.674,2.674,0,0,0,.3-.273v-1a5.7,5.7,0,0,0-1,.075,2.815,2.815,0,0,0-.672.195.933.933,0,0,0-.376.285.614.614,0,0,0-.118.367.808.808,0,0,0,.063.333.622.622,0,0,0,.168.229.667.667,0,0,0,.249.131A1.136,1.136,0,0,0,1218.879,354.188Z" transform="translate(-1196.015 -347.762)" fill="#56557e"/><path d="M1226.764,350.718a.373.373,0,0,1-.078.081.174.174,0,0,1-.11.029.278.278,0,0,1-.156-.061,2.372,2.372,0,0,0-.214-.132,1.769,1.769,0,0,0-.313-.132,1.671,1.671,0,0,0-1.082.067,1.213,1.213,0,0,0-.458.367,1.671,1.671,0,0,0-.278.581,2.88,2.88,0,0,0-.093.762,2.788,2.788,0,0,0,.1.784,1.7,1.7,0,0,0,.283.576,1.21,1.21,0,0,0,.443.354,1.365,1.365,0,0,0,.588.122,1.514,1.514,0,0,0,.513-.074,1.58,1.58,0,0,0,.335-.165,2.374,2.374,0,0,0,.221-.166.269.269,0,0,1,.173-.074.18.18,0,0,1,.163.082l.24.312a1.84,1.84,0,0,1-.791.569,2.811,2.811,0,0,1-1,.179,2.116,2.116,0,0,1-.846-.168,1.934,1.934,0,0,1-.679-.487,2.313,2.313,0,0,1-.453-.784,3.444,3.444,0,0,1-.015-2.062,2.277,2.277,0,0,1,.442-.794,2,2,0,0,1,.717-.52,2.411,2.411,0,0,1,.979-.187,2.3,2.3,0,0,1,.9.165,2.177,2.177,0,0,1,.7.468Z" transform="translate(-1197.077 -347.764)" fill="#56557e"/><path d="M1230.365,354.455a1.173,1.173,0,0,1-.885-.322,1.283,1.283,0,0,1-.308-.925v-2.973h-.585a.19.19,0,0,1-.129-.046.176.176,0,0,1-.053-.142v-.34l.8-.1.2-1.5a.183.183,0,0,1,.063-.117.2.2,0,0,1,.134-.046h.431v1.674h1.391v.618h-1.391v2.916a.618.618,0,0,0,.149.456.519.519,0,0,0,.384.149.663.663,0,0,0,.232-.037,1,1,0,0,0,.17-.079c.047-.029.089-.056.123-.079a.153.153,0,0,1,.088-.036.148.148,0,0,1,.12.082l.249.407a1.59,1.59,0,0,1-.532.324A1.813,1.813,0,0,1,1230.365,354.455Z" transform="translate(-1198.041 -347.43)" fill="#56557e"/><path d="M1191.289,359.784v-.575h33.729v.575Z" transform="translate(-1191.289 -349.48)" fill="#56557e"/></g><path d="M3.6,0H301.21a3.6,3.6,0,0,1,3.6,3.6v6.526a3.6,3.6,0,0,1-3.6,3.6H3.6a3.6,3.6,0,0,1-3.6-3.6V3.6A3.6,3.6,0,0,1,3.6,0Z" transform="translate(87.336 55.918)" fill="#fff"/><path d="M922.877,357.743H911.895V344.019h10.982a2.953,2.953,0,0,1,2.945,2.944V354.8A2.953,2.953,0,0,1,922.877,357.743Z" transform="translate(-533.675 -288.101)" fill="#56557e"/><g transform="translate(380.355 58.31)"><path d="M917.382,352.7a2.878,2.878,0,1,1,2.879-2.878A2.881,2.881,0,0,1,917.382,352.7Zm0-4.938a2.06,2.06,0,1,0,2.061,2.06A2.062,2.062,0,0,0,917.382,347.761Z" transform="translate(-914.505 -346.943)" fill="#fff"/><rect width="0.818" height="5.812" transform="translate(4.475 4.638) rotate(-42.833)" fill="#fff"/></g><path d="M8,0H71.3a8,8,0,0,1,8,8V58.734a8,8,0,0,1-8,8H8a8,8,0,0,1-8-8V8A8,8,0,0,1,8,0Z" transform="translate(128.634 272.123)" fill="#e5e8f5"/><path d="M3.364,0h52.7a3.364,3.364,0,1,1,0,6.727H3.364A3.364,3.364,0,0,1,3.364,0Z" transform="translate(136.336 287.521)" fill="#fff"/><path d="M3.364,0h52.7a3.364,3.364,0,1,1,0,6.727H3.364A3.364,3.364,0,0,1,3.364,0Z" transform="translate(136.336 302.136)" fill="#fff"/><path d="M3.364,0H32.295a3.364,3.364,0,0,1,0,6.727H3.364A3.364,3.364,0,0,1,3.364,0Z" transform="translate(136.336 316.538)" fill="#fff"/><path d="M8,0H71.3a8,8,0,0,1,8,8V58.734a8,8,0,0,1-8,8H8a8,8,0,0,1-8-8V8A8,8,0,0,1,8,0Z" transform="translate(238.752 272.123)" fill="#e5e8f5"/><path d="M3.364,0h52.7a3.364,3.364,0,1,1,0,6.727H3.364A3.364,3.364,0,0,1,3.364,0Z" transform="translate(246.454 287.521)" fill="#fff"/><path d="M3.364,0h52.7a3.364,3.364,0,1,1,0,6.727H3.364A3.364,3.364,0,0,1,3.364,0Z" transform="translate(246.454 302.136)" fill="#fff"/><path d="M3.364,0H32.295a3.364,3.364,0,0,1,0,6.727H3.364A3.364,3.364,0,0,1,3.364,0Z" transform="translate(246.454 316.538)" fill="#fff"/><path d="M8,0H71.3a8,8,0,0,1,8,8V58.734a8,8,0,0,1-8,8H8a8,8,0,0,1-8-8V8A8,8,0,0,1,8,0Z" transform="translate(348.967 272.123)" fill="#e5e8f5"/><path d="M3.364,0h52.7a3.364,3.364,0,1,1,0,6.727H3.364A3.364,3.364,0,0,1,3.364,0Z" transform="translate(356.668 287.521)" fill="#fff"/><path d="M3.364,0h52.7a3.364,3.364,0,1,1,0,6.727H3.364A3.364,3.364,0,0,1,3.364,0Z" transform="translate(356.668 302.136)" fill="#fff"/><path d="M3.364,0H32.295a3.364,3.364,0,0,1,0,6.727H3.364A3.364,3.364,0,0,1,3.364,0Z" transform="translate(356.668 316.538)" fill="#fff"/><path d="M8,0H71.3a8,8,0,0,1,8,8V58.734a8,8,0,0,1-8,8H8a8,8,0,0,1-8-8V8A8,8,0,0,1,8,0Z" transform="translate(459.085 272.123)" fill="#e5e8f5"/><path d="M3.364,0h52.7a3.364,3.364,0,1,1,0,6.727H3.364A3.364,3.364,0,0,1,3.364,0Z" transform="translate(466.787 287.521)" fill="#fff"/><path d="M3.364,0h52.7a3.364,3.364,0,1,1,0,6.727H3.364A3.364,3.364,0,0,1,3.364,0Z" transform="translate(466.787 302.136)" fill="#fff"/><path d="M3.364,0H32.295a3.364,3.364,0,0,1,0,6.727H3.364A3.364,3.364,0,0,1,3.364,0Z" transform="translate(466.787 316.538)" fill="#fff"/></g></svg>