<svg xmlns="http://www.w3.org/2000/svg" width="173.677" height="297.732" viewBox="0 0 173.677 297.732"><path d="M24,0H149.677a24,24,0,0,1,24,24V273.732a24,24,0,0,1-24,24H24a24,24,0,0,1-24-24V24A24,24,0,0,1,24,0Z" transform="translate(0 0)" fill="#56557e"/><rect width="163.151" height="221.701" transform="translate(5.263 38.015)" fill="#fff"/><path d="M3.979,0H85.115a3.979,3.979,0,1,1,0,7.958H3.979A3.979,3.979,0,0,1,3.979,0Z" transform="translate(55.596 17.833)" fill="#a1a8c5"/><circle cx="3.911" cy="3.911" r="3.911" transform="translate(41.254 17.968)" fill="#a1a8c5"/><g transform="translate(20.838 272.059)"><path d="M367.005,908.524h-6.526v-.818h6.526a2.531,2.531,0,0,0,0-5.062H350.75v-.818h16.255a3.349,3.349,0,0,1,0,6.7Z" transform="translate(-349.561 -898.019)" fill="#a1a8c5"/><rect width="6.006" height="0.818" transform="translate(0 4.247) rotate(-45)" fill="#a1a8c5"/><rect width="0.818" height="4.9" transform="translate(0.491 4.653) rotate(-45)" fill="#a1a8c5"/></g><path d="M438.071,907.6H417.248v-6.538l10.411-3.739,10.412,3.739Zm-20-.818h19.186v-5.145l-9.594-3.445-9.593,3.445Z" transform="translate(-340.82 -625.139)" fill="#a1a8c5"/><g transform="translate(134.234 271.771)"><rect width="20.765" height="0.818" transform="translate(0 9.653)" fill="#a1a8c5"/><rect width="20.765" height="0.818" transform="translate(0 4.695)" fill="#a1a8c5"/><rect width="20.765" height="0.818" fill="#a1a8c5"/></g><g transform="translate(5.259 38)"><g transform="translate(7.016 87.982)"><path d="M0,0H148.866V76.555H0Z" transform="translate(0.409 0.409)" fill="#e5e8f5"/></g><path d="M0,0H1.636V163.956H0Z" transform="translate(8.951 89.867) rotate(-62.749)" fill="#fff"/><path d="M0,0H163.956V1.636H0Z" transform="matrix(0.889, -0.458, 0.458, 0.889, 8.96, 164.164)" fill="#fff"/><path d="M0,0H163.151V12.248H0Z" fill="#bbc0d6"/><path d="M0,0H163.151V19.441H0Z" transform="translate(0 12.28)" fill="#e5e8f5"/><g transform="translate(135.607 3.536)"><path d="M497.167,616.219h-.017l-.986.532-.148-.584,1.239-.663h.654v5.668h-.741Z" transform="translate(-496.016 -615.407)" fill="#fff"/><path d="M500.853,621.151v-.47l.6-.585c1.448-1.378,2.1-2.111,2.111-2.966a1.011,1.011,0,0,0-1.125-1.107,1.931,1.931,0,0,0-1.2.479l-.245-.541a2.488,2.488,0,0,1,1.605-.576,1.6,1.6,0,0,1,1.735,1.648c0,1.047-.758,1.893-1.954,3.044l-.453.419v.017h2.546v.636Z" transform="translate(-496.896 -615.386)" fill="#fff"/><path d="M506.392,621.757a.516.516,0,0,1,.524-.55.55.55,0,1,1-.524.55Z" transform="translate(-497.904 -616.445)" fill="#fff"/><path d="M511.9,616.149h-2.162l-.218,1.456a3.064,3.064,0,0,1,.462-.035,2.392,2.392,0,0,1,1.221.305,1.615,1.615,0,0,1,.811,1.457,1.966,1.966,0,0,1-2.11,1.936,2.778,2.778,0,0,1-1.413-.349l.191-.584a2.545,2.545,0,0,0,1.212.313,1.251,1.251,0,0,0,1.343-1.23c-.009-.732-.5-1.256-1.63-1.256a5.845,5.845,0,0,0-.785.061l.366-2.721H511.9Z" transform="translate(-498.285 -615.407)" fill="#fff"/><path d="M513.988,621.151v-.47l.6-.585c1.448-1.378,2.1-2.111,2.111-2.966a1.011,1.011,0,0,0-1.125-1.107,1.933,1.933,0,0,0-1.2.479l-.244-.541a2.485,2.485,0,0,1,1.6-.576,1.6,1.6,0,0,1,1.735,1.648c0,1.047-.758,1.893-1.954,3.044l-.453.419v.017h2.547v.636Z" transform="translate(-499.285 -615.386)" fill="#fff"/></g><rect width="1.351" height="0.824" rx="0.212" transform="translate(126.317 2.364)" fill="#fff"/><rect width="5.147" height="7.234" rx="0.467" transform="translate(124.434 2.931)" fill="#fff"/><path d="M487.124,622.847h-4.382a.382.382,0,0,1-.382-.382v-2.507h5.147v2.507A.382.382,0,0,1,487.124,622.847Z" transform="translate(-357.925 -612.681)" fill="#eceff1"/><path d="M474.579,613.971v7.766h-7.766Z" transform="translate(-355.096 -611.592)" fill="#eceff1"/><g transform="translate(107.723 2.349)"><path d="M463.465,617.428v-.9h-1.534v-.294l1.473-2.107h.482v2.051h.462v.35h-.462v.9Zm0-1.249v-1.1c0-.173,0-.345.016-.519h-.016c-.1.194-.182.335-.274.488l-.807,1.122v.01Z" transform="translate(-461.931 -613.97)" fill="#eceff1"/><path d="M468.059,617.241a3.183,3.183,0,0,1-1.051.188,1.609,1.609,0,0,1-1.757-1.727,1.717,1.717,0,0,1,1.854-1.767,2.108,2.108,0,0,1,.852.158l-.106.361a1.759,1.759,0,0,0-.756-.148,1.281,1.281,0,0,0-1.377,1.376,1.255,1.255,0,0,0,1.32,1.382,1.441,1.441,0,0,0,.589-.092v-1.02h-.7V615.6h1.127Z" transform="translate(-462.535 -613.935)" fill="#eceff1"/></g><g transform="translate(4.821 16.032)"><path d="M2.749,0h133.5a2.749,2.749,0,0,1,2.749,2.749V8.779a2.749,2.749,0,0,1-2.749,2.749H2.749A2.749,2.749,0,0,1,0,8.779V2.749A2.749,2.749,0,0,1,2.749,0Z" transform="translate(0.204 0.205)" fill="#fff"/></g><g transform="translate(131.764 17.627)"><path d="M492.414,635.594h-.409V632.61h3.245v.409h-2.836Z" transform="translate(-491.443 -632.61)" fill="#8f97b9"/><path d="M495.423,642.486h-3.417v-3.677h.409v3.268h3.008Z" transform="translate(-491.443 -633.738)" fill="#8f97b9"/><path d="M501.929,635.556h-.409v-2.537h-3.049v-.409h3.458Z" transform="translate(-492.619 -632.61)" fill="#8f97b9"/><path d="M501.976,642.477h-3.249v-.409h2.84v-3.307h.409Z" transform="translate(-492.666 -633.729)" fill="#8f97b9"/><rect width="9.922" height="0.409" transform="translate(0 3.894)" fill="#8f97b9"/></g><g transform="translate(148.034 17.08)"><path d="M523.059,637.8l-.359-.2,1.649-3,.359.2Z" transform="translate(-513.297 -632.424)" fill="#8f97b9"/><path d="M522.245,637.886l-2.449-1.345.2-.358,2.449,1.345Z" transform="translate(-512.769 -632.713)" fill="#8f97b9"/><path d="M516.127,641.784a4.922,4.922,0,1,1,4.922-4.922h-.409a4.512,4.512,0,1,0-4.513,4.513Z" transform="translate(-511.206 -631.941)" fill="#8f97b9"/></g><path d="M5.284,0h82.81a5.284,5.284,0,0,1,0,10.568H5.284A5.284,5.284,0,0,1,5.284,0Z" transform="translate(4.846 39.978)" fill="#e5e8f5"/><path d="M3.445,0H145.1a3.445,3.445,0,1,1,0,6.889H3.445A3.445,3.445,0,0,1,3.445,0Z" transform="translate(4.846 59.201)" fill="#e5e8f5"/><path d="M3.445,0h125.5a3.445,3.445,0,1,1,0,6.889H3.445A3.445,3.445,0,0,1,3.445,0Z" transform="translate(4.846 72.804)" fill="#e5e8f5"/><path d="M3.445,0H145.1a3.445,3.445,0,1,1,0,6.889H3.445A3.445,3.445,0,0,1,3.445,0Z" transform="translate(4.846 176.103)" fill="#e5e8f5"/><path d="M3.445,0H145.1a3.445,3.445,0,1,1,0,6.889H3.445A3.445,3.445,0,0,1,3.445,0Z" transform="translate(4.846 190.766)" fill="#e5e8f5"/><path d="M3.445,0h125.5a3.445,3.445,0,1,1,0,6.889H3.445A3.445,3.445,0,0,1,3.445,0Z" transform="translate(4.846 205.978)" fill="#e5e8f5"/></g></svg>