<svg xmlns="http://www.w3.org/2000/svg" width="232.054" height="397.807" viewBox="0 0 232.054 397.807"><path d="M37.316,0H194.738a37.316,37.316,0,0,1,37.316,37.316V360.491a37.316,37.316,0,0,1-37.316,37.316H37.316A37.316,37.316,0,0,1,0,360.491V37.316A37.316,37.316,0,0,1,37.316,0Z" fill="#56557e"/><path d="M0,0H217.99V296.22H0Z" transform="translate(7.032 50.793)" fill="#fff"/><rect width="217.99" height="84.762" transform="translate(7.032 262.252)" fill="none" opacity="0.5"/><path d="M5.316,0H113.724a5.316,5.316,0,1,1,0,10.633H5.316A5.316,5.316,0,0,1,5.316,0Z" transform="translate(66.088 23.827)" fill="#a1a8c5"/><circle cx="5.226" cy="5.226" r="5.226" transform="translate(46.925 24.007)" fill="#a1a8c5"/><circle cx="15.594" cy="15.594" r="15.594" transform="translate(100.243 357.131)" fill="#a1a8c5"/></svg>