<svg xmlns="http://www.w3.org/2000/svg" width="289.311" height="627.144" viewBox="0 0 289.311 627.144"><path d="M1074.623,582.486c-72.32,0-26.367,135.531-36.159,135.531-19.971,0-51.812-87.676-36.16-135.531C1030.256,497.019,1126.169,582.486,1074.623,582.486Z" transform="translate(-998.117 -90.874)" fill="#b0c9f1"/><path d="M1206.805,582.486c72.32,0,26.366,135.531,36.159,135.531,19.971,0,51.812-87.676,36.161-135.531C1251.172,497.019,1155.259,582.486,1206.805,582.486Z" transform="translate(-994.001 -90.874)" fill="#b0c9f1"/><ellipse cx="110.812" cy="273.666" rx="110.812" ry="273.666" transform="translate(32.496)" fill="#b0c9f1"/><path d="M1066.737,179.305c21.318-48.17,47.983-78.993,56.589-78.993,11.75,0,37.972,30.823,58.33,78.993C1196.986,215.578,1050.684,215.578,1066.737,179.305Z" transform="translate(-980.573 -80.077)" fill="#92aed9"/><path d="M1163.767,633.036c0,46.984-9.061,85.071-20.24,85.071s-20.241-38.087-20.241-85.071,9.062-92.725,20.241-92.725S1163.767,586.054,1163.767,633.036Z" transform="translate(-995.458 -90.963)" fill="#92aed9"/><g transform="translate(79.721 190.055)"><circle cx="64.248" cy="64.248" r="64.248" transform="translate(0 0)" fill="#707070"/><path d="M54.492,0A54.492,54.492,0,1,1,0,54.492,54.492,54.492,0,0,1,54.492,0Z" transform="translate(9.66 9.66)" fill="#fff"/></g></svg>