<svg xmlns="http://www.w3.org/2000/svg" width="1466.725" height="1087.614" viewBox="0 0 1466.725 1087.614"><g transform="translate(-5144 262)"><g transform="translate(5682 -262)"><path d="M21.157,0h517.42a21.157,21.157,0,0,1,21.157,21.157V382.914a21.157,21.157,0,0,1-21.157,21.157H21.157A21.157,21.157,0,0,1,0,382.914V21.157A21.157,21.157,0,0,1,21.157,0Z" transform="translate(0 0.506)" fill="#bbc0d6" opacity="0.8"/><path d="M601.576,285.2V263.6a20.3,20.3,0,0,1,20.236-20.235h519.262A20.3,20.3,0,0,1,1161.31,263.6v21.6Z" transform="translate(-601.576 -243.365)" fill="#56557e"/><circle cx="10.099" cy="10.099" r="10.099" transform="translate(34.204 10.192)" fill="#fa538d"/><circle cx="10.099" cy="10.099" r="10.099" transform="translate(73.925 10.192)" fill="#fab353"/><circle cx="10.099" cy="10.099" r="10.099" transform="translate(113.646 10.192)" fill="#9dc925"/><path d="M0,0H504.3V297.513H0Z" transform="translate(27.503 70.317)" fill="#37474f" opacity="0.8"/><g transform="translate(122.054 172.001)"><path d="M745.727,429.436H728.8V389.958H686.445v39.477H669.517V339.109h16.928v38.856H728.8V339.109h16.93Z" transform="translate(-669.517 -339.109)" fill="#fff"/><path d="M789.123,339.109v13.806H761.95v76.521h-16.8V352.915h-27.3V339.109Z" transform="translate(-631.021 -339.109)" fill="#fff"/><path d="M810.788,396.109q.9,2.158,1.78,4.342.873-2.247,1.811-4.434t2-4.188L843.114,341.8a6.98,6.98,0,0,1,1.031-1.5,3.192,3.192,0,0,1,1.188-.812,5.269,5.269,0,0,1,1.468-.313c.541-.041,1.188-.063,1.937-.063h12.681v90.327h-14.8V371.093q0-1.625.093-3.562t.28-3.934l-27.3,51.223a7.218,7.218,0,0,1-2.436,2.718,6.308,6.308,0,0,1-3.5.966h-2.312a6.3,6.3,0,0,1-3.5-.966,7.239,7.239,0,0,1-2.438-2.718l-27.671-51.411q.248,2.064.343,4.031t.093,3.654v58.342h-14.8V339.109H776.15q1.124,0,1.937.063a5.274,5.274,0,0,1,1.468.313,3.469,3.469,0,0,1,1.218.812,6.328,6.328,0,0,1,1.062,1.5l26.986,50.161Q809.88,393.957,810.788,396.109Z" transform="translate(-594.687 -339.109)" fill="#fff"/><path d="M844.948,415.569h36.168v13.867H828.144V339.109h16.8Z" transform="translate(-543.175 -339.109)" fill="#fff"/></g></g><g transform="translate(6069 418)"><path d="M25.221,0H516.5a25.221,25.221,0,0,1,25.221,25.221V381.789A25.221,25.221,0,0,1,516.5,407.01H25.221A25.221,25.221,0,0,1,0,381.789V25.221A25.221,25.221,0,0,1,25.221,0Z" transform="translate(0.001 0.604)" fill="#bbc0d6" opacity="0.8"/><path d="M453.347,688.057V662.311a24.194,24.194,0,0,1,24.125-24.122H970.949a24.194,24.194,0,0,1,24.122,24.122v25.746Z" transform="translate(-453.347 -638.189)" fill="#56557e"/><circle cx="12.038" cy="12.038" r="12.038" transform="translate(40.774 12.15)" fill="#fa538d"/><circle cx="12.038" cy="12.038" r="12.038" transform="translate(88.125 12.15)" fill="#fab353"/><circle cx="12.038" cy="12.038" r="12.038" transform="translate(135.476 12.15)" fill="#9dc925"/><path d="M0,0H475.642V279.985H0Z" transform="translate(32.786 83.825)" fill="#37474f" opacity="0.8"/><g transform="translate(126.212 160.763)"><path d="M592.556,796.733A3.761,3.761,0,0,1,595.387,798l7.894,8.564A43.385,43.385,0,0,1,587.159,819q-9.569,4.318-22.974,4.317a54.282,54.282,0,0,1-21.557-4.094,47.491,47.491,0,0,1-16.344-11.393A49.858,49.858,0,0,1,515.895,790.4a65.416,65.416,0,0,1-3.613-22.116,59.5,59.5,0,0,1,4.024-22.229,50.189,50.189,0,0,1,28.78-28.741,60.038,60.038,0,0,1,22.45-4.058,53.03,53.03,0,0,1,20.961,3.833,49.045,49.045,0,0,1,15.378,10.164l-6.7,9.309a6.119,6.119,0,0,1-1.527,1.565,4.339,4.339,0,0,1-2.57.668,5.84,5.84,0,0,1-3.5-1.341,43.54,43.54,0,0,0-4.542-2.9,36.992,36.992,0,0,0-6.964-2.9,40.262,40.262,0,0,0-24.647,1.3,31.05,31.05,0,0,0-10.945,7.56,34.751,34.751,0,0,0-7.148,11.952,45.845,45.845,0,0,0-2.57,15.824,47.1,47.1,0,0,0,2.57,16.158,35.459,35.459,0,0,0,6.962,11.915,29.7,29.7,0,0,0,10.35,7.41,31.98,31.98,0,0,0,12.808,2.57,56.194,56.194,0,0,0,7.41-.448,31.7,31.7,0,0,0,6.105-1.415,27.137,27.137,0,0,0,5.287-2.5,33.1,33.1,0,0,0,4.951-3.76,7.066,7.066,0,0,1,1.563-1.079A3.951,3.951,0,0,1,592.556,796.733Z" transform="translate(-512.282 -713.258)" fill="#fff"/><path d="M623.908,734.033a5.55,5.55,0,0,1-1.9,2.309,4.779,4.779,0,0,1-2.57.67,6.518,6.518,0,0,1-3.352-1.154q-1.86-1.153-4.392-2.57a35.9,35.9,0,0,0-5.921-2.568,24.84,24.84,0,0,0-8-1.154,23.531,23.531,0,0,0-7.262,1,15.355,15.355,0,0,0-5.212,2.793,11.164,11.164,0,0,0-3.165,4.281,14.053,14.053,0,0,0-1.041,5.474,9.525,9.525,0,0,0,2.12,6.33,17.726,17.726,0,0,0,5.622,4.318,52.012,52.012,0,0,0,7.971,3.2q4.465,1.413,9.121,3.015a88.392,88.392,0,0,1,9.121,3.722,31.669,31.669,0,0,1,7.969,5.362,24.347,24.347,0,0,1,5.622,7.93,27.525,27.525,0,0,1,2.122,11.393,37.093,37.093,0,0,1-2.5,13.665,31.512,31.512,0,0,1-7.3,11.1,34.336,34.336,0,0,1-11.727,7.446,43.168,43.168,0,0,1-15.86,2.718,51.143,51.143,0,0,1-10.127-1,53.323,53.323,0,0,1-9.568-2.866,49.909,49.909,0,0,1-8.564-4.469,42.032,42.032,0,0,1-7.112-5.808l5.808-9.607a7.439,7.439,0,0,1,1.975-1.749,4.821,4.821,0,0,1,2.57-.707,7.1,7.1,0,0,1,4.02,1.527q2.159,1.526,5.1,3.388a39.084,39.084,0,0,0,6.926,3.386,26.718,26.718,0,0,0,9.568,1.529q8.564,0,13.254-4.06t4.692-11.652A10.813,10.813,0,0,0,609.8,784.3a17.142,17.142,0,0,0-5.621-4.506,42.294,42.294,0,0,0-7.969-3.09q-4.468-1.266-9.084-2.754a77.636,77.636,0,0,1-9.084-3.576,29.359,29.359,0,0,1-7.969-5.435,24.712,24.712,0,0,1-5.622-8.375,31.924,31.924,0,0,1-2.122-12.4,29.648,29.648,0,0,1,9.2-21.373,33.8,33.8,0,0,1,11.057-6.924,40.226,40.226,0,0,1,14.967-2.606,50.237,50.237,0,0,1,17.574,2.979,39.658,39.658,0,0,1,13.7,8.339Z" transform="translate(-460.086 -713.258)" fill="#fff"/><path d="M661.218,734.033a5.548,5.548,0,0,1-1.9,2.309,4.779,4.779,0,0,1-2.57.67,6.518,6.518,0,0,1-3.352-1.154q-1.86-1.153-4.392-2.57a35.908,35.908,0,0,0-5.921-2.568,24.842,24.842,0,0,0-8-1.154,23.529,23.529,0,0,0-7.262,1,15.355,15.355,0,0,0-5.213,2.793,11.158,11.158,0,0,0-3.163,4.281,14.015,14.015,0,0,0-1.043,5.474,9.526,9.526,0,0,0,2.12,6.33,17.731,17.731,0,0,0,5.622,4.318,52.014,52.014,0,0,0,7.971,3.2q4.465,1.413,9.121,3.015a88.4,88.4,0,0,1,9.121,3.722,31.67,31.67,0,0,1,7.969,5.362,24.342,24.342,0,0,1,5.622,7.93,27.526,27.526,0,0,1,2.122,11.393,37.094,37.094,0,0,1-2.495,13.665,31.512,31.512,0,0,1-7.3,11.1,34.334,34.334,0,0,1-11.727,7.446,43.169,43.169,0,0,1-15.86,2.718,51.14,51.14,0,0,1-10.127-1,53.328,53.328,0,0,1-9.569-2.866,49.911,49.911,0,0,1-8.564-4.469,42.026,42.026,0,0,1-7.112-5.808l5.808-9.607a7.431,7.431,0,0,1,1.974-1.749,4.821,4.821,0,0,1,2.57-.707,7.1,7.1,0,0,1,4.02,1.527q2.159,1.526,5.1,3.388a39.094,39.094,0,0,0,6.926,3.386,26.717,26.717,0,0,0,9.568,1.529q8.564,0,13.254-4.06t4.692-11.652a10.813,10.813,0,0,0-2.123-6.926,17.138,17.138,0,0,0-5.622-4.506,42.288,42.288,0,0,0-7.969-3.09q-4.468-1.266-9.084-2.754a77.6,77.6,0,0,1-9.084-3.576,29.359,29.359,0,0,1-7.969-5.435,24.716,24.716,0,0,1-5.621-8.375,31.924,31.924,0,0,1-2.122-12.4,29.649,29.649,0,0,1,9.2-21.373,33.8,33.8,0,0,1,11.057-6.924,40.226,40.226,0,0,1,14.967-2.606,50.238,50.238,0,0,1,17.573,2.979,39.66,39.66,0,0,1,13.7,8.339Z" transform="translate(-417.495 -713.258)" fill="#fff"/></g></g><g transform="translate(5144 287)"><path d="M25.043,0H512.856A25.043,25.043,0,0,1,537.9,25.043V379.093a25.043,25.043,0,0,1-25.043,25.043H25.043A25.043,25.043,0,0,1,0,379.093V25.043A25.043,25.043,0,0,1,25.043,0Z" transform="translate(0 0.601)" fill="#bbc0d6" opacity="0.8"/><path d="M506.486,425.775V400.211a24.023,24.023,0,0,1,23.952-23.954h489.993a24.023,24.023,0,0,1,23.952,23.954v25.564Z" transform="translate(-506.485 -376.257)" fill="#56557e" opacity="0.8"/><circle cx="11.953" cy="11.953" r="11.953" transform="translate(40.486 12.065)" fill="#fa538d"/><circle cx="11.953" cy="11.953" r="11.953" transform="translate(87.502 12.065)" fill="#fab353"/><circle cx="11.953" cy="11.953" r="11.953" transform="translate(134.518 12.065)" fill="#9dc925"/><path d="M0,0H472.284V278.008H0Z" transform="translate(32.554 83.234)" fill="#37474f" opacity="0.8"/><g transform="translate(207.235 162.488)"><path d="M598.529,521.582a55.433,55.433,0,0,1-2.22,16.267,33.747,33.747,0,0,1-6.617,12.348,28.855,28.855,0,0,1-10.979,7.838,39.687,39.687,0,0,1-15.306,2.734,63,63,0,0,1-7.838-.48,70.121,70.121,0,0,1-8.059-1.516l1.036-11.829a3.93,3.93,0,0,1,1.22-2.624,4.451,4.451,0,0,1,3.143-1,14.046,14.046,0,0,1,3.29.517,24.385,24.385,0,0,0,12.608-.7,12.67,12.67,0,0,0,5.433-3.883,17.876,17.876,0,0,0,3.29-6.915,41.349,41.349,0,0,0,1.11-10.313V452.671h19.891Z" transform="translate(-547.51 -452.671)" fill="#fff"/></g></g><path d="M603.908,734.033c-.546,1.092,18.82,1.861,18.1,2.309a4.779,4.779,0,0,1-2.57.67,6.518,6.518,0,0,1-3.352-1.154q-1.86-1.153-4.392-2.57a35.9,35.9,0,0,0-5.921-2.568,24.84,24.84,0,0,0-8-1.154,23.531,23.531,0,0,0-7.262,1,15.355,15.355,0,0,0-5.212,2.793,11.164,11.164,0,0,0-3.165,4.281,14.053,14.053,0,0,0-1.041,5.474,9.525,9.525,0,0,0,2.12,6.33,17.726,17.726,0,0,0,5.622,4.318,52.012,52.012,0,0,0,7.971,3.2q4.465,1.413,9.121,3.015a88.392,88.392,0,0,1,9.121,3.722,31.669,31.669,0,0,1,7.969,5.362,24.347,24.347,0,0,1,5.622,7.93,27.525,27.525,0,0,1,2.122,11.393,37.093,37.093,0,0,1-2.5,13.665,31.512,31.512,0,0,1-7.3,11.1,34.336,34.336,0,0,1-11.727,7.446,43.168,43.168,0,0,1-15.86,2.718,51.143,51.143,0,0,1-10.127-1,53.323,53.323,0,0,1-9.568-2.866,49.909,49.909,0,0,1-8.564-4.469,42.032,42.032,0,0,1-7.112-5.808l5.808-9.607a7.439,7.439,0,0,1,1.975-1.749,4.821,4.821,0,0,1,2.57-.707,7.1,7.1,0,0,1,4.02,1.527q2.159,1.526,5.1,3.388a39.084,39.084,0,0,0,6.926,3.386,26.718,26.718,0,0,0,9.568,1.529q8.564,0,13.254-4.06t4.692-11.652A10.813,10.813,0,0,0,609.8,784.3a17.142,17.142,0,0,0-5.621-4.506,42.294,42.294,0,0,0-7.969-3.09q-4.468-1.266-9.084-2.754a77.636,77.636,0,0,1-9.084-3.576,29.359,29.359,0,0,1-7.969-5.435,24.712,24.712,0,0,1-5.622-8.375,31.924,31.924,0,0,1-2.122-12.4,29.648,29.648,0,0,1,9.2-21.373,33.8,33.8,0,0,1,11.057-6.924,40.226,40.226,0,0,1,14.967-2.606,50.237,50.237,0,0,1,17.574,2.979,39.658,39.658,0,0,1,13.7,8.339Z" transform="translate(4859.125 -265.494)" fill="#fff"/></g></svg>