<svg class="sc-31ozxh-1 MPFwN" width="107.895" height="39.215" viewBox="0 0 107.895 39.215"><defs><clipPath id="a"><rect width="107.895" height="39.215" fill="none"></rect></clipPath><clipPath id="b"><rect width="107.895" height="30.058" fill="none"></rect></clipPath></defs><g transform="translate(0 0)" clip-path="url(#a)"><g transform="translate(0.506 28.315)"><path d="M5.034,10.778C2.023,10.778,0,8.612,0,5.388S2.023,0,5.034,0s5.017,2.165,5.017,5.388S8.035,10.778,5.034,10.778Zm0-8.889c-1.957,0-2.833,1.758-2.833,3.5s.876,3.5,2.833,3.5,2.817-1.758,2.817-3.5S6.98,1.888,5.034,1.888Z" transform="translate(11.34 0.123)" fill="#ff4700"></path><path d="M6.9,3.275,5.012,10.313H2.52L0,0H2.273L3.85,7.669,5.9,0h2L9.95,7.669,11.526,0H13.8l-2.52,10.313H8.788Z" transform="translate(22.429 0.355)" fill="#ff4700"></path><path d="M6.333,0V6.616L2,0H0V10.313H2.193V3.7l4.329,6.616h2V0Z" transform="translate(0.943 0.355)" fill="#ff4700"></path></g><g clip-path="url(#b)"><path d="M0,15.627H3.952V0H0Z" transform="translate(69.395 7.425)" fill="#333f48"></path><path d="M14.25,5.868v10H10.419V6.646A3.086,3.086,0,0,0,7.3,3.293c-2.1,0-3.533,1.617-3.533,4.072v8.5H0V.24H3.833V2.455h.059C4.97.659,6.527,0,8.922,0c3.113.06,5.328,2.335,5.328,5.868" transform="translate(76.041 7.185)" fill="#333f48"></path><path d="M8.682,0C7.005,0,4.79.3,4.012,2.335h-.06V.18H0V15.807H3.892V8.622c0-3.054,1.677-5.03,4.131-5.03h.6Z" transform="translate(51.912 7.245)" fill="#333f48"></path><path d="M7.545,16.047C3.032,16.047,0,12.8,0,7.963A8.15,8.15,0,0,1,2.111,2.185,7.308,7.308,0,0,1,7.545,0c4.441,0,7.424,3.248,7.424,8.083h-.06v.3H3.593c.175,2.691,1.749,4.43,4.011,4.43,2.08,0,3.329-.806,3.712-2.395h3.592C14.318,13.785,11.358,16.047,7.545,16.047ZM7.6,2.695A3.865,3.865,0,0,0,3.892,5.808h7.186C10.617,3.772,9.416,2.695,7.6,2.695Z" transform="translate(34.847 7.305)" fill="#333f48"></path><path d="M8.563,3.293H5.149V0H8.563V3.292Zm-5.15,0H0V0H3.413V3.292Z" transform="translate(22.992 6.526)" fill="#ff4700"></path><path d="M7.844,22.877a8.073,8.073,0,0,1-4.708-1.37A5.959,5.959,0,0,1,.718,17.847H4.55a3.643,3.643,0,0,0,3.533,1.8c2.359,0,3.712-1.2,3.712-3.293V13.417h-.059A3.81,3.81,0,0,1,9.844,15.33a6.417,6.417,0,0,1-2.79.613c-.136,0-.273,0-.407-.012a6.524,6.524,0,0,1-4.76-2.253A8.579,8.579,0,0,1,0,7.968,8.573,8.573,0,0,1,1.916,2.235,6.532,6.532,0,0,1,6.706,0c.109,0,.217,0,.321,0C9.363,0,10.9.785,11.736,2.4H11.8V.244h3.772V16.051a6.394,6.394,0,0,1-2.133,4.985A8.343,8.343,0,0,1,7.844,22.877ZM7.424,3.119A3.622,3.622,0,0,0,4.52,4.5,5.607,5.607,0,0,0,3.413,8.028,5.241,5.241,0,0,0,4.551,11.5a3.746,3.746,0,0,0,2.934,1.317c2.4,0,3.952-1.88,3.952-4.79C11.436,5.091,9.824,3.119,7.424,3.119Z" transform="translate(92.328 7.18)" fill="#333f48"></path><path d="M9.58,9.52c-2.874-.479-5.03-.958-5.03-3.054,0-1.856,1.557-3.054,4.012-3.054a4.081,4.081,0,0,1,4.191,3.054h4.131C16.166,2.575,13.053,0,8.742,0,3.772,0,.419,2.754.419,6.826c0,4.97,4.67,5.688,7.724,6.167s5.389,1.078,5.389,3.473c0,2.036-1.856,3.353-4.67,3.353a4.684,4.684,0,0,1-4.67-3.054H0c.9,3.952,4.251,6.526,8.742,6.526,5.329,0,8.921-2.874,8.921-7.245-.06-4.79-4.012-5.868-8.083-6.526" fill="#333f48"></path><path d="M0,3.772H3.952V0H0Z" transform="translate(69.395 1.796)" fill="#343741"></path><path d="M0,21.256H3.952V0H0Z" transform="translate(62.749 1.796)" fill="#333f48"></path><path d="M7.006,20.837A6.885,6.885,0,0,1,2,18.816a7.478,7.478,0,0,1-2-5.344V7.3H3.832v6.048a3.354,3.354,0,0,0,3.413,3.592c.075,0,.15.007.224.007a3.326,3.326,0,0,0,2.269-.884,3.251,3.251,0,0,0,1.039-2.176h3.892a8.433,8.433,0,0,1-2.462,4.977A7.416,7.416,0,0,1,7.006,20.837ZM3.832,3.952H0V0H3.832V3.951Z" transform="translate(19.16 2.575)" fill="#333f48"></path><path d="M8.563,3.293H5.149V0H8.563V3.292Zm-5.15,0H0V0H3.413V3.292Z" transform="translate(22.992 6.526)" fill="#ff4700"></path><path d="M0,3.772H3.952V0H0Z" transform="translate(69.395 1.796)" fill="#333f48"></path></g></g></svg>