<svg id="ba648f82-9352-4096-a324-06ec3c17dba0" data-name="Layer 1" xmlns="http://www.w3.org/2000/svg" xmlns:xlink="http://www.w3.org/1999/xlink" width="107.9" height="39.22" viewBox="0 0 107.9 39.22"><title>snow-logo.inline</title><g clip-path="url(#beedaaa4-64dc-474a-8348-9d1dc381c72f)"><path d="M16.88,39.22c-3,0-5-2.17-5-5.39s2-5.39,5-5.39,5,2.16,5,5.39S19.88,39.22,16.88,39.22Zm0-8.89c-2,0-2.83,1.76-2.83,3.5s.87,3.5,2.83,3.5,2.82-1.76,2.82-3.5-.87-3.5-2.82-3.5Z" fill="#ff4700"/><path d="M29.84,32,28,39H25.46L22.94,28.67h2.27l1.58,7.67,2.05-7.67h2l2.05,7.67,1.57-7.67h2.28L34.22,39h-2.5Z" fill="#ff4700"/><path d="M7.78,28.67v6.62L3.45,28.67h-2V39H3.64V32.37L8,39h2V28.67Z" fill="#ff4700"/><g clip-path="url(#beedaaa4-64dc-474a-8348-9d1dc381c72f)"><path d="M69.39,23.05h4V7.43h-4Z" fill="#333f48"/><path d="M90.29,13.05v10H86.46V13.83a3.08,3.08,0,0,0-2.81-3.34h-.31c-2.1,0-3.53,1.61-3.53,4.07v8.5H76V7.42h3.83V9.64h.06c1.08-1.8,2.64-2.46,5-2.46,3.12.06,5.33,2.34,5.33,5.87" fill="#333f48"/><path d="M60.59,7.24c-1.67,0-3.89.3-4.67,2.34h-.06V7.42h-4V23.05H55.8V15.87c0-3.06,1.68-5,4.13-5h.6Z" fill="#333f48"/><path d="M42.39,23.35c-4.51,0-7.54-3.24-7.54-8.08A8.15,8.15,0,0,1,37,9.49,7.34,7.34,0,0,1,42.39,7.3c4.44,0,7.43,3.25,7.43,8.09h-.06v.3H38.44c.18,2.69,1.75,4.43,4,4.43,2.08,0,3.33-.81,3.71-2.4h3.6C49.16,21.09,46.2,23.35,42.39,23.35ZM42.45,10a3.86,3.86,0,0,0-3.71,3.11h7.19C45.46,11.08,44.26,10,42.45,10Z" fill="#333f48"/><path d="M31.56,9.82H28.14V6.53h3.42V9.82Zm-5.15,0H23V6.53h3.42V9.82Z" fill="#ff4700"/><path d="M100.17,30.06a8.13,8.13,0,0,1-4.71-1.37A6,6,0,0,1,93.05,25h3.83a3.65,3.65,0,0,0,3.53,1.8c2.36,0,3.71-1.2,3.71-3.3V20.6h-.06a3.82,3.82,0,0,1-1.89,1.91,6.38,6.38,0,0,1-2.79.61H99a6.52,6.52,0,0,1-4.76-2.25,8.58,8.58,0,0,1-1.89-5.71,8.61,8.61,0,0,1,1.91-5.74A6.56,6.56,0,0,1,99,7.18h.33c2.33,0,3.87.78,4.7,2.4h.07V7.42h3.77V23.23a6.44,6.44,0,0,1-2.13,5A8.41,8.41,0,0,1,100.17,30.06ZM99.75,10.3a3.6,3.6,0,0,0-2.9,1.38,5.6,5.6,0,0,0-1.11,3.53,5.26,5.26,0,0,0,1.14,3.47A3.76,3.76,0,0,0,99.81,20c2.4,0,4-1.88,4-4.79S102.15,10.3,99.75,10.3Z" fill="#333f48"/><path d="M9.58,9.52c-2.87-.48-5-1-5-3,0-1.86,1.56-3.06,4-3.06a4.08,4.08,0,0,1,4.19,3.06h4.13C16.17,2.58,13.05,0,8.74,0,3.77,0,.42,2.75.42,6.83c0,5,4.67,5.68,7.72,6.16s5.39,1.08,5.39,3.48c0,2-1.85,3.35-4.67,3.35a4.69,4.69,0,0,1-4.67-3.06H0c.9,4,4.25,6.53,8.74,6.53,5.33,0,8.92-2.87,8.92-7.24-.06-4.79-4-5.87-8.08-6.53" fill="#333f48"/><path d="M69.39,5.57h4V1.8h-4Z" fill="#343741"/><path d="M62.75,23.05h4V1.8h-4Z" fill="#333f48"/><path d="M26.17,23.41a6.85,6.85,0,0,1-5-2,7.45,7.45,0,0,1-2-5.34V9.88H23v6a3.36,3.36,0,0,0,3.11,3.59h.53a3.35,3.35,0,0,0,2.27-.88,3.31,3.31,0,0,0,1-2.18h3.89a8.45,8.45,0,0,1-2.46,5A7.41,7.41,0,0,1,26.17,23.41ZM23,6.53H19.16V2.58H23v4Z" fill="#333f48"/><path d="M31.56,9.82H28.14V6.53h3.42V9.82Zm-5.15,0H23V6.53h3.42V9.82Z" fill="#ff4700"/><path d="M69.39,5.57h4V1.8h-4Z" fill="#333f48"/></g></g></svg>