<svg xmlns="http://www.w3.org/2000/svg" viewBox="0 0 179.8 50.1"><path fill="#333f48" d="M115.7 12.4h6.6v26.1h-6.6zm35 9.4v16.7h-6.4V23.1c0-3.3-2.1-5.6-5.2-5.6-3.5 0-5.8 2.7-5.8 6.8v14.1h-6.4v-26h6.4v3.7h.1c1.8-3 4.4-4.1 8.4-4.1 5.2.1 8.9 3.9 8.9 9.8zm-50.6-9.7c-2.8 0-6.5.6-7.7 3.9h-.1v-3.6h-6.5v26.1h6.5v-12c0-5.1 2.8-8.4 6.9-8.4h1v-6zm73.4.3V16h-.1c-1.7-3.3-5-4.1-8.4-4-6.4.2-11.2 5.3-11.2 13.3s4.7 13 11.1 13.3c3.5.2 7.2-1.1 8.5-4.2h.1v4.8c0 3.7-2.5 5.5-6.2 5.5-2.7 0-5-1-5.9-3H155c1.1 5.1 5.9 8.4 12.1 8.4 7.7 0 12.7-4.4 12.7-11.4V12.4zm-7.2 21c-4 0-6.8-3.2-6.8-8s2.7-8.2 6.7-8.2 6.7 3.3 6.7 8.2-2.6 8-6.6 8zM15.9 15.9c-4.8-.8-8.4-1.6-8.4-5.1 0-3.1 2.6-5.1 6.7-5.1a6.79 6.79 0 0 1 7 5.1h6.9C26.9 4.3 21.7 0 14.5 0 6.2 0 .6 4.6.6 11.3c0 8.3 7.7 9.5 12.9 10.3s9 1.8 9 5.8c0 3.4-3.1 5.6-7.8 5.6A7.82 7.82 0 0 1 7 27.9H0c1.5 6.6 7.1 10.9 14.6 10.9 8.9 0 14.9-4.9 14.9-12.1-.2-7.9-6.8-9.7-13.6-10.8zM104 3h6.6v35.5H104zm-65.5 7.9h-6.4V5h6.4zm11.6 16.6a5.51 5.51 0 0 1-5.9 5.1c-3.5 0-5.7-2.6-5.7-6V16.5h-6.4v10.3c0 7.4 5 12.3 11.7 12.3 7.1 0 11.8-4.9 12.8-11.6zM115.7 3h6.6v6.3h-6.6zM76.6 29.5a6.15 6.15 0 0 1-5.9 3.7c-3.6 0-6.1-2.4-6.7-6.6h18.9v-1.1c-.1-8-5.1-13.5-12.6-13.5s-12.5 5.4-12.5 13.4S62.8 39 70.4 39c6.3 0 11.2-4 12.3-9.5zm-6.1-12.8c3.2 0 5.4 2.1 6 5.6h-12c.7-3.5 2.9-5.6 6-5.6z"/><path d="M52.7 10.9v5.5H47v-5.5zm-8.5 0h-5.7v5.5h5.7z" fill="#ff4700"/></svg>