<svg id="Layer_1" data-name="Layer 1" xmlns="http://www.w3.org/2000/svg" width="63.48mm" height="23.17mm" viewBox="0 0 179.95 65.68"><title>Sterling-Volunteers-RGB</title><rect x="115.79" y="12.39" width="6.63" height="26.11" fill="#323e48"/><path d="M150.78,21.82V38.5H144.4V23.13c0-3.34-2.08-5.6-5.22-5.6-3.48,0-5.85,2.7-5.85,6.83V38.5H127V12.39h6.38v3.73h.1c1.76-3,4.42-4.07,8.44-4.07C147,12.05,150.78,15.93,150.78,21.82Z" transform="translate(0 0)" fill="#323e48"/><path d="M100.2,12.05c-2.76,0-6.47.55-7.74,3.94h-.1V12.38H85.83V38.5h6.53v-12c0-5.06,2.76-8.4,6.87-8.4.31,0,.64,0,1,0Z" transform="translate(0 0)" fill="#323e48"/><path d="M173.57,12.37V16h-.1c-1.69-3.35-5-4.06-8.43-4-6.42.19-11.25,5.3-11.25,13.31s4.73,13,11.15,13.31c3.45.18,7.24-1.1,8.53-4.22h.1v4.8c0,3.68-2.49,5.47-6.23,5.47-2.68,0-5-1-5.88-3h-6.35c1.14,5.07,5.9,8.37,12.11,8.37C175,50.07,180,45.64,180,38.66V12.37Zm-7.15,21c-4,0-6.84-3.17-6.84-8s2.7-8.2,6.71-8.2,6.71,3.29,6.71,8.2S170.44,33.37,166.42,33.37Z" transform="translate(0 0)" fill="#323e48"/><path d="M16,15.93c-4.75-.75-8.39-1.61-8.39-5.07,0-3.08,2.62-5.08,6.68-5.08a6.85,6.85,0,0,1,7,5.13h6.87C27,4.25,21.77,0,14.56,0,6.25,0,.67,4.56.67,11.35c0,8.29,7.75,9.51,12.88,10.32s9,1.77,9,5.8c0,3.36-3.14,5.61-7.81,5.61A7.79,7.79,0,0,1,7,28H0c1.48,6.64,7.07,10.86,14.56,10.86,8.9,0,14.87-4.86,14.87-12.08C29.43,18.76,22.79,17,16,15.93Z" transform="translate(0 0)" fill="#323e48"/><rect x="104.13" y="3" width="6.59" height="35.5" fill="#323e48"/><path d="M38.57,10.91H32.21V5h6.36ZM50.15,27.45a5.51,5.51,0,0,1-5.86,5.13h0c-3.49,0-5.7-2.59-5.7-6V16.46H32.21V26.72c0,7.4,5,12.34,11.67,12.34,7.06,0,11.84-4.88,12.8-11.61Z" transform="translate(0 0)" fill="#323e48"/><rect x="115.79" y="3.01" width="6.63" height="6.26" fill="#323e48"/><path d="M76.7,29.5a6.24,6.24,0,0,1-5.91,3.73c-3.55,0-6.06-2.39-6.7-6.59H83V25.52C82.91,17.45,77.85,12,70.44,12S58,17.42,58,25.43,63,39,70.55,39c6.25,0,11.15-4,12.31-9.5ZM70.61,16.73h.08c3.15,0,5.29,2.11,5.94,5.57h-12C65.32,18.84,67.46,16.73,70.61,16.73Z" transform="translate(0 0)" fill="#323e48"/><path d="M52.81,10.91v5.55H47.13V10.91Zm-8.52,0H38.57v5.55h5.72Z" transform="translate(0 0)" fill="#fe4812"/><path d="M.66,48.31H4.42L8.27,61.06l3.79-12.75h3.7l-5.62,17H6.35Z" transform="translate(0 0)" fill="#ff4700"/><path d="M28.49,59.12c0,3.91-2.34,6.52-6.37,6.52S15.76,63,15.76,59.12s2.33-6.54,6.36-6.54S28.49,55.21,28.49,59.12Zm-9.32,0c0,2.48,1.24,3.8,2.95,3.8s2.95-1.32,2.95-3.8-1.23-3.81-2.95-3.81-2.95,1.33-2.95,3.81Z" transform="translate(0 0)" fill="#ff4700"/><path d="M30.8,48.31h3.36v17H30.8Z" transform="translate(0 0)" fill="#ff4700"/><path d="M40.76,60c0,2.09.71,2.85,2.13,2.85,1.61,0,2.71-1.08,2.71-3.73V52.89H49V65.34H45.6V63.27c-.39,1-1.47,2.39-4,2.39s-4.2-1.34-4.2-4.74v-8h3.38Z" transform="translate(0 0)" fill="#ff4700"/><path d="M60.14,58.24c0-2.08-.72-2.83-2.17-2.83-1.62,0-2.74,1.06-2.74,3.71v6.22H51.84V52.89h3.39V55c.39-1,1.48-2.43,4.07-2.43s4.22,1.35,4.22,4.74v8H60.14Z" transform="translate(0 0)" fill="#ff4700"/><path d="M67.17,60.89V55.65H65.05V52.89h2.12V49.31h3.37v3.58h2.74v2.76H70.54v4.88c0,1.58.49,2.2,1.72,2.2a5.91,5.91,0,0,0,1-.12v2.71s-1.26.12-2.09.12C68.29,65.44,67.17,64.07,67.17,60.89Z" transform="translate(0 0)" fill="#ff4700"/><path d="M78.39,60.13c.26,2,1.38,3,2.9,3a2.65,2.65,0,0,0,2.42-1.39h3.35a5.68,5.68,0,0,1-5.79,3.91c-4,0-6.22-2.65-6.22-6.43s2.16-6.63,6.22-6.63c3.81,0,6.14,2.56,6.14,6.65,0,.49,0,.87,0,.87Zm0-1.93h5.67c-.25-2.06-1.31-3.05-2.81-3.05S78.64,56.22,78.39,58.2Z" transform="translate(0 0)" fill="#ff4700"/><path d="M92.65,60.1c.26,2,1.37,3,2.9,3A2.66,2.66,0,0,0,98,61.73h3.35a5.69,5.69,0,0,1-5.8,3.91c-4,0-6.21-2.65-6.21-6.42s2.16-6.64,6.21-6.64c3.82,0,6.14,2.56,6.14,6.65,0,.49,0,.87,0,.87Zm0-1.93h5.67c-.25-2.06-1.31-3-2.81-3s-2.61,1.06-2.86,3Z" transform="translate(0 0)" fill="#ff4700"/><path d="M112.22,52.86v2.87a5.51,5.51,0,0,0-1.14-.11c-2.25,0-3.59,1.26-3.59,4.63v5.09h-3.38V52.89h3.38V55A3.61,3.61,0,0,1,111,52.75,5.82,5.82,0,0,1,112.22,52.86Z" transform="translate(0 0)" fill="#ff4700"/><path d="M113.63,61.55h3.42c0,1.16.78,1.76,2.42,1.76s2.34-.65,2.34-1.5c0-1.05-.94-1.3-2.41-1.51-2.86-.42-5.57-.88-5.57-3.72,0-2.41,1.91-4,5.5-4s5.62,1.49,5.62,4h-3.3c0-.95-.75-1.62-2.28-1.62s-2.17.57-2.17,1.42.81,1.15,2.2,1.39c2.33.41,5.77.55,5.77,3.82,0,2.16-1.45,4.09-5.78,4.09S113.63,63.83,113.63,61.55Z" transform="translate(0 0)" fill="#ff4700"/></svg>