<svg xmlns="http://www.w3.org/2000/svg" width="394.61" height="488.33" viewBox="0 0 394.61 488.33"><path d="M23.984,0H370.626A23.984,23.984,0,0,1,394.61,23.984V464.346a23.984,23.984,0,0,1-23.984,23.984H23.984A23.984,23.984,0,0,1,0,464.346V23.984A23.984,23.984,0,0,1,23.984,0Z" fill="#56557e"/><path d="M8.991,0h342.1a8.991,8.991,0,0,1,8.991,8.991V426.575a8.991,8.991,0,0,1-8.991,8.991H8.991A8.991,8.991,0,0,1,0,426.575V8.991A8.991,8.991,0,0,1,8.991,0Z" transform="translate(17.264 31.399)" fill="#fff"/><g transform="translate(173.163 8.709)"><circle cx="6.412" cy="6.412" r="6.412" transform="translate(17.73)" fill="#fff"/><circle cx="3.893" cy="3.893" r="3.893" transform="translate(40.499 2.025)" fill="#fff"/><circle cx="3.893" cy="3.893" r="3.893" transform="translate(0 2.025)" fill="#fff"/></g></svg>